#N canvas 577 548 1299 825 12;
#X obj 111 386 % 8;
#X obj 101 120 swix;
#X obj 138 120 swix;
#X obj 175 120 swix;
#X obj 212 120 swix;
#X obj 249 120 swix;
#X obj 286 120 swix;
#X obj 323 120 swix;
#X obj 360 120 swix;
#X obj 11 32 inlet;
#X obj 251 309 outlet;
#X msg 128 72 0;
#X msg 165 71 1;
#X msg 202 71 2;
#X msg 239 71 3;
#X msg 276 70 4;
#X msg 387 70 7;
#X msg 313 70 5;
#X msg 350 70 6;
#X obj 250 2 loadbang;
#X connect 0 0 1 0;
#X connect 0 0 2 0;
#X connect 0 0 3 0;
#X connect 0 0 4 0;
#X connect 0 0 6 0;
#X connect 0 0 8 0;
#X connect 0 0 7 0;
#X connect 0 0 5 0;
#X connect 1 0 10 0;
#X connect 2 0 10 0;
#X connect 3 0 10 0;
#X connect 4 0 10 0;
#X connect 5 0 10 0;
#X connect 6 0 10 0;
#X connect 7 0 10 0;
#X connect 8 0 10 0;
#X connect 9 0 0 0;
#X connect 11 0 1 1;
#X connect 12 0 2 1;
#X connect 13 0 3 1;
#X connect 14 0 4 1;
#X connect 15 0 5 1;
#X connect 16 0 8 1;
#X connect 17 0 6 1;
#X connect 18 0 7 1;
#X connect 19 0 11 0;
#X connect 19 0 18 0;
#X connect 19 0 17 0;
#X connect 19 0 16 0;
#X connect 19 0 15 0;
#X connect 19 0 14 0;
#X connect 19 0 13 0;
#X connect 19 0 12 0;
#X coords 0 -1 1 1 400 100 1 100 100;
