#N canvas 892 415 866 711 12;
#X obj -21 178 loadbang;
#X obj 124 108 tgl 15 0 empty empty empty 17 7 0 10 #fcfcfc #000000
#000000 0 1;
#X obj 60 178 sel 0;
#X obj 59 273 bng 15 250 50 0 empty empty empty 17 7 0 10 #fcfcfc #000000
#000000;
#X obj 125 273 bng 15 250 50 0 empty empty empty 17 7 0 10 #fcfcfc
#000000 #000000;
#X obj 130 340 int 0;
#X obj 233 402 + 1;
#X msg 59 312 0;
#X obj 125 176 metro 300;
#X obj 132 423 outlet;
#X connect 0 0 3 0;
#X connect 0 0 1 0;
#X connect 1 0 2 1;
#X connect 1 0 8 0;
#X connect 2 0 3 0;
#X connect 3 0 7 0;
#X connect 4 0 5 0;
#X connect 5 0 6 0;
#X connect 5 0 9 0;
#X connect 6 0 5 1;
#X connect 7 0 5 0;
#X connect 8 0 4 0;
#X coords 0 -1 1 1 85 60 1 100 100;
