#N canvas 626 203 1354 1042 12;
#X obj 238 45 loadbang;
#X obj 206 154 metro;
#X obj 60 156 loadbang;
#X obj 205 115 tgl 15 0 empty empty empty 17 7 0 10 #fcfcfc #000000
#000000 0 1;
#X floatatom 242 109 5 0 0 0 - - - 0;
#X obj 141 153 sel 0;
#X obj 140 251 bng 15 250 50 0 empty empty empty 17 7 0 10 #fcfcfc
#000000 #000000;
#X obj 206 252 bng 15 250 50 0 empty empty empty 17 7 0 10 #fcfcfc
#000000 #000000;
#X msg 238 79 375;
#X obj 211 318 int 0;
#X obj 314 371 + 1;
#X msg 141 278 0;
#X msg 544 215 open 09_Hat_01_SP.wav \, 1;
#X obj 544 249 readsf~;
#X obj 382 182 bng 15 250 50 0 empty empty empty 17 7 0 10 #fcfcfc
#000000 #000000;
#X obj 491 999 dac~;
#X obj 207 380 send clock;
#X obj 866 371 receive clock;
#X obj 793 244 readsf~;
#X obj 793 181 bng 15 250 50 0 empty empty empty 17 7 0 10 #fcfcfc
#000000 #000000;
#X msg 793 210 open 09_Kick_01_SP.wav \, 1;
#X obj 504 955 clip~ -0.1 0.1;
#X obj 194 633 acid;
#X floatatom 195 587 5 0 0 0 - - - 0;
#X obj 866 458 8seq;
#X obj 792 50 8seq;
#X obj 795 15 receive clock;
#X obj 544 648 *~ 0.1;
#X obj 355 41 8seq;
#X obj 358 6 receive clock;
#X obj 194 693 *~ 0.3;
#X obj 392 284 bng 15 250 50 0 empty empty empty 17 7 0 10 #fcfcfc
#000000 #000000;
#X obj 364 207 delay 100 1 msec;
#X floatatom 473 157 5 0 0 0 - - - 0;
#X obj 836 650 delay 100 1 msec;
#X obj 830 697 bng 15 250 50 0 empty empty empty 17 7 0 10 #fcfcfc
#000000 #000000;
#X floatatom 959 595 5 0 0 0 - - - 0;
#X obj 875 601 bng 15 250 50 0 empty empty empty 17 7 0 10 #fcfcfc
#000000 #000000;
#X connect 0 0 8 0;
#X connect 1 0 7 0;
#X connect 2 0 6 0;
#X connect 3 0 1 0;
#X connect 3 0 5 1;
#X connect 4 0 1 1;
#X connect 5 0 6 0;
#X connect 6 0 11 0;
#X connect 7 0 9 0;
#X connect 8 0 4 0;
#X connect 9 0 10 0;
#X connect 9 0 16 0;
#X connect 10 0 9 1;
#X connect 11 0 9 0;
#X connect 12 0 13 0;
#X connect 13 0 27 0;
#X connect 14 0 32 0;
#X connect 17 0 24 0;
#X connect 18 0 27 0;
#X connect 19 0 20 0;
#X connect 20 0 18 0;
#X connect 21 0 15 0;
#X connect 21 0 15 1;
#X connect 22 0 30 0;
#X connect 23 0 22 0;
#X connect 24 0 23 0;
#X connect 24 0 37 0;
#X connect 25 0 19 0;
#X connect 26 0 25 0;
#X connect 27 0 21 0;
#X connect 28 0 14 0;
#X connect 28 0 31 0;
#X connect 29 0 28 0;
#X connect 30 0 27 0;
#X connect 31 0 12 0;
#X connect 32 0 31 0;
#X connect 33 0 32 1;
#X connect 34 0 35 0;
#X connect 35 0 23 0;
#X connect 36 0 34 1;
#X connect 37 0 34 0;
#X coords 0 0 1 1 85 60 0;
