#N canvas 912 342 1436 741 10;
#X obj 175 169 phasor~;
#X obj 111 169 phasor~;
#X obj 168 186 *~ -1;
#X obj 152 202 +~;
#X msg 211 152 0.5;
#X msg 144 152 0;
#X obj 152 219 *~ 2;
#X floatatom 144 100 5 0 0 0 - - - 0;
#X obj 206 97 loadbang;
#X obj 147 284 clip~ -0.1 0.1;
#X obj 141 378 dac~;
#X msg 211 52 44;
#X floatatom 348 79 5 0 0 0 - - - 0;
#X obj 373 13 r pitch;
#X connect 0 0 2 0;
#X connect 1 0 3 0;
#X connect 2 0 3 1;
#X connect 3 0 6 0;
#X connect 4 0 0 1;
#X connect 5 0 1 1;
#X connect 6 0 9 0;
#X connect 7 0 1 0;
#X connect 7 0 0 0;
#X connect 8 0 4 0;
#X connect 8 0 5 0;
#X connect 8 0 11 0;
#X connect 9 0 10 0;
#X connect 9 0 10 1;
#X connect 11 0 7 0;
#X connect 12 0 0 0;
#X connect 13 0 12 0;
