#N canvas 912 342 1436 741 10;
#X obj 381 114 square;
#X obj 321 322 dac~;
#X obj 400 217 clip~ -0.1 0.1;
#X floatatom 339 18 5 0 0 0 - - - 0;
#X connect 0 0 2 0;
#X connect 2 0 1 0;
#X connect 3 0 0 0;
