#N canvas 572 300 971 650 12;
#X obj 94 325 spigot;
#X obj 133 272 r a;
#X obj 94 300 sel 0;
#X obj 192 372 send zero;
#X obj 143 325 spigot;
#X obj 143 300 sel 1;
#X obj 192 325 spigot;
#X obj 231 272 r c;
#X obj 192 300 sel 2;
#X obj 241 325 spigot;
#X obj 280 272 r d;
#X obj 241 300 sel 3;
#X obj 290 325 spigot;
#X obj 329 272 r e;
#X obj 290 300 sel 4;
#X obj 192 188 r x, f 6;
#X obj 182 272 r b;
#X connect 0 0 3 0;
#X connect 1 0 0 1;
#X connect 2 0 0 0;
#X connect 4 0 3 0;
#X connect 5 0 4 0;
#X connect 6 0 3 0;
#X connect 7 0 6 1;
#X connect 8 0 6 0;
#X connect 9 0 3 0;
#X connect 10 0 9 1;
#X connect 11 0 9 0;
#X connect 12 0 3 0;
#X connect 13 0 12 1;
#X connect 14 0 12 0;
#X connect 15 0 2 0;
#X connect 15 0 5 0;
#X connect 15 0 8 0;
#X connect 15 0 11 0;
#X connect 15 0 14 0;
#X connect 16 0 4 1;
