#N canvas 757 493 971 650 12;
#X obj 62 308 spigot;
#X obj 62 340 outlet;
#X obj 62 29 inlet;
#X obj 62 192 sel;
#X obj 101 122 tgl 32 0 empty empty empty 17 7 0 10 #ff8300 #000000
#000000 0 1;
#X obj 110 103 bng 15 250 50 0 empty empty empty 17 7 0 10 #00ff04
#000000 #000000;
#X obj 80 65 inlet;
#X obj 104 161 nbx 2 14 -1e+37 1e+37 0 0 empty empty empty 0 -8 0 10
#fcfcfc #000000 #000000 0 256;
#X connect 0 0 1 0;
#X connect 2 0 3 0;
#X connect 3 0 5 0;
#X connect 4 0 0 1;
#X connect 5 0 7 0;
#X connect 6 0 3 1;
#X connect 7 0 0 0;
#X coords 0 -1 1 1 34 80 2 100 100;
