#N canvas 757 493 971 650 12;
#X obj -289.636322021484 -121.363616943359 osc~;
#X obj -231.545455932617 -196.363647460938 mtof;
#X obj -243.714294433594 -332.883117675781 metro 400;
#X obj -245 -408 bng 15 250 50 0 empty empty empty 17 7 0 10 #fcfcfc #000000 #000000;
#X obj -73.8381958007812 -19.4443969726562 osc~;
#X clip~;
#X connect 1 0 0 0;
#X connect 2 0 1 0;
#X connect 3 0 2 0;
