#N canvas 757 493 971 650 12;
#X obj -885.262939453125 -725.0966796875 bng 15 250 50 0 empty empty empty 17 7 0 10 #fcfcfc #000000 #000000;
#X obj -885.262939453125 -550.0966796875 soundfiler;
#X msg -888.262939453125 -621.0966796875 read -resize kick.wav soundData;
#X obj -895.262939453125 -312.096649169922 nbx 2 14 -1e+37 1e+37 0 0 empty empty empty 0 -8 0 10;
#X obj -963.262939453125 70.9033508300781 abs;
#X obj -742.262939453125 -164.096649169922 expr 44100/$f1;
#X obj -1114.26293945312 120.903350830078 /;
#X obj -777.262939453125 -449.096649169922 bng 15 250 50 0 empty empty empty 17 7 0 10 #fcfcfc #000000 #000000;
#X obj -690.262939453125 -51.0966491699219 nbx 2 14 -1e+37 1e+37 0 0 empty empty empty 0 -8 0 10;
#X obj -1116.26293945312 187.903350830078 delay $1 1 samp;
#X obj -736.262939453125 242.903350830078 *;
#X obj -1205.26293945312 294.903350830078 bng 15 250 50 0 empty empty empty 17 7 0 10 #fcfcfc #000000 #000000;
#X msg -1041.26293945312 388.903350830078 0;
#X msg -1119.26293945312 389.903350830078 0;
#X obj -1118.26293945312 481.903350830078 phasor~;
#X obj -948.262939453125 622.9033203125 *~;
#X obj -944.262939453125 764.9033203125 tabread4~ soundData;
#X connect 3 0 6 0;
#X connect 3 0 15 1;
#X connect 3 0 5 0;
#X connect 0 0 2 0;
#X connect 7 0 3 0;
#X connect 1 0 3 0;
#X connect 2 0 1 0;
#X connect 8 0 4 0;
#X connect 6 0 9 0;
#X connect 5 0 10 0;
#X connect 4 0 6 1;
#X connect 9 0 13 0;
#X connect 8 0 10 1;
#X connect 9 0 11 0;
#X connect 10 0 14 0;
#X connect 10 0 12 0;
#X connect 12 0 14 1;
#X connect 13 0 14 1;
#X connect 13 0 14 0;
#X connect 14 0 15 0;
#X connect 15 0 16 0;
