#N canvas 626 203 1354 1042 12;
#X obj 111 386 % 8;
#X obj 101 120 swix \$1/1;
#X obj 138 120 swix \$1/2;
#X obj 175 120 swix \$1/3;
#X obj 212 120 swix \$1/4;
#X obj 249 120 swix \$1/5;
#X obj 286 120 swix \$1/6;
#X obj 323 120 swix \$1/7;
#X obj 360 120 swix \$1/8;
#X obj 11 32 inlet;
#X obj 251 309 outlet;
#X obj 250 2 loadbang;
#X obj 0 0 coords 0 -1 1 1 400 100 1 100 100;
#X connect 0 0 1 0;
#X connect 0 0 2 0;
#X connect 0 0 3 0;
#X connect 0 0 4 0;
#X connect 0 0 6 0;
#X connect 0 0 8 0;
#X connect 0 0 7 0;
#X connect 0 0 5 0;
#X connect 1 0 10 0;
#X connect 2 0 10 0;
#X connect 3 0 10 0;
#X connect 4 0 10 0;
#X connect 5 0 10 0;
#X connect 6 0 10 0;
#X connect 7 0 10 0;
#X connect 8 0 10 0;
#X connect 9 0 0 0;
#X connect 11 0 1 1;
