#N canvas 883 421 1094 697 12;
#X obj 53 159 inlet;
#X obj 53 197 mtof;
#X floatatom 54 421 5 0 0 0 - - - 0;
#X obj 53 527 send~ Saw_Bass;
#X msg 200 303 1 10;
#X obj 200 351 line;
#X floatatom 200 403 5 0 0 0 - - - 0;
#X obj 200 481 + 500;
#X floatatom 200 514 5 0 0 0 - - - 0;
#X obj 674 587 outlet~;
#X obj 674 551 *~;
#X floatatom 674 512 5 0 0 0 - - - 0;
#X obj 674 464 line;
#X obj 196 253 bng 15 250 50 0 empty empty empty 17 7 0 10 #fcfcfc
#000000 #000000;
#X obj 679 216 bng 15 250 50 0 empty empty empty 17 7 0 10 #fcfcfc
#000000 #000000;
#X obj 358 243 receive~ Saw_Bass;
#X obj 355 414 vcf~;
#X obj 381 332 loadbang;
#X obj 265 263 delay 10;
#X obj 520 240 receive~ Saw_Bass;
#X obj 517 411 vcf~;
#X obj 529 287 r Filter_Freq;
#X obj 543 329 loadbang;
#X obj 200 550 s Filter_Freq;
#X obj 367 290 r Filter_Freq;
#X obj 145 123 hsl 128 15 0 127 0 0 s-acid-res r-acid-res empty -2
-8 0 10 #fcfcfc #000000 #000000 0 1;
#X obj 139 155 / 127;
#X msg 263 295 0 250;
#X obj 201 441 *;
#X msg 674 410 1 10;
#X obj 109 454 phasor~;
#X obj 139 194 * 8000;
#X msg 753 408 0 111;
#X obj 758 340 delay 133;
#X msg 541 370 24;
#X msg 379 374 4;
#X obj 146 104 hsl 128 15 0 5000 0 0 s-acid-decay r-acid-decay empty
-2 -8 0 10 #fcfcfc #000000 #000000 0 1;
#X connect 0 0 1 0;
#X connect 1 0 2 0;
#X connect 1 0 13 0;
#X connect 1 0 14 0;
#X connect 2 0 30 0;
#X connect 4 0 5 0;
#X connect 5 0 6 0;
#X connect 6 0 28 0;
#X connect 7 0 8 0;
#X connect 8 0 23 0;
#X connect 10 0 9 0;
#X connect 11 0 10 1;
#X connect 12 0 11 0;
#X connect 13 0 4 0;
#X connect 13 0 18 0;
#X connect 14 0 29 0;
#X connect 14 0 33 0;
#X connect 15 0 16 0;
#X connect 16 0 10 0;
#X connect 17 0 35 0;
#X connect 18 0 27 0;
#X connect 19 0 20 0;
#X connect 20 0 10 0;
#X connect 21 0 20 1;
#X connect 22 0 34 0;
#X connect 24 0 16 1;
#X connect 25 0 26 0;
#X connect 26 0 31 0;
#X connect 27 0 5 0;
#X connect 28 0 7 0;
#X connect 29 0 12 0;
#X connect 30 0 3 0;
#X connect 31 0 28 1;
#X connect 32 0 12 0;
#X connect 33 0 32 0;
#X connect 34 0 20 2;
#X connect 35 0 16 2;
#X connect 36 0 33 1;
#X coords 0 -1 1 1 200 60 1 100 100;
