#N canvas 626 203 1354 1042 12;
#X obj 53 159 inlet;
#X obj 53 197 mtof;
#X floatatom 54 421 5 0 0 0 - - - 0;
#X obj 53 527 send~ Saw_Bass;
#X msg 200 303 1 10;
#X obj 200 351 line;
#X floatatom 200 403 5 0 0 0 - - - 0;
#X obj 200 481 + 500;
#X floatatom 200 514 5 0 0 0 - - - 0;
#X obj 674 587 outlet~;
#X obj 674 551 *~;
#X floatatom 674 512 5 0 0 0 - - - 0;
#X obj 674 464 line;
#X obj 196 253 bng 15 250 50 0 /s/\$1/13 /r/\$1/13 empty 17 7 0 10 #fcfcfc #000000 #000000;
#X obj 679 216 bng 15 250 50 0 /s/\$1/14 /r/\$1/14 empty 17 7 0 10 #fcfcfc #000000 #000000;
#X obj 358 243 receive~ Saw_Bass;
#X obj 355 414 vcf~;
#X obj 381 332 loadbang;
#X obj 265 263 delay 10;
#X obj 520 240 receive~ Saw_Bass;
#X obj 517 411 vcf~;
#X obj 529 287 r Filter_Freq;
#X obj 543 329 loadbang;
#X obj 200 550 s Filter_Freq;
#X obj 367 290 r Filter_Freq;
#X obj 18 468 square \$1/25;
#X obj 249 75 hsl 128 15 0 127 0 0 /s/\$1/26 /r/\$1/26 empty -2 -8 0 10 #fcfcfc #000000 #000000 0 1;
#X obj 240 113 / 127;
#X msg 263 295 0 250;
#X obj 201 441 *;
#X msg 674 410 1 10;
#X obj 109 454 phasor~;
#X obj 240 152 * 8000;
#X msg 379 374 2;
#X msg 541 370 7;
#X msg 753 408 0 111;
#X obj 758 340 delay 333;
#X connect 0 0 1 0;
#X connect 1 0 2 0;
#X connect 1 0 13 0;
#X connect 1 0 14 0;
#X connect 2 0 25 0;
#X connect 2 0 31 0;
#X connect 4 0 5 0;
#X connect 5 0 6 0;
#X connect 6 0 29 0;
#X connect 7 0 8 0;
#X connect 8 0 23 0;
#X connect 10 0 9 0;
#X connect 11 0 10 1;
#X connect 12 0 11 0;
#X connect 13 0 4 0;
#X connect 13 0 18 0;
#X connect 14 0 30 0;
#X connect 14 0 36 0;
#X connect 15 0 16 0;
#X connect 16 0 10 0;
#X connect 17 0 33 0;
#X connect 18 0 28 0;
#X connect 19 0 20 0;
#X connect 20 0 10 0;
#X connect 21 0 20 1;
#X connect 22 0 34 0;
#X connect 24 0 16 1;
#X connect 25 0 3 0;
#X connect 26 0 27 0;
#X connect 27 0 32 0;
#X connect 28 0 5 0;
#X connect 29 0 7 0;
#X connect 30 0 12 0;
#X connect 31 0 3 0;
#X connect 32 0 29 1;
#X connect 33 0 16 2;
#X connect 34 0 20 2;
#X connect 35 0 12 0;
#X connect 36 0 35 0;
