#N canvas 940 364 946 953 12;
#X obj 93 443 vline~;
#X obj 93 305 pack f f f f;
#X obj 107 119 vsl 15 128 0 127 0 0 empty empty a 0 -9 0 10 #fcfcfc
#000000 #000000 0 1;
#X obj 145 119 vsl 15 128 0 1 0 0 empty empty s 0 -9 0 10 #fcfcfc #000000
#000000 0 1;
#X obj 126 119 vsl 15 128 0 127 0 0 empty empty d 0 -9 0 10 #fcfcfc
#000000 #000000 0 1;
#X obj 164 119 vsl 15 128 0 5000 0 0 empty empty r 0 -9 0 10 #fcfcfc
#000000 #000000 0 1;
#X obj 277 273 pack f f;
#X msg 277 314 0 \$2;
#X obj 268 55 change;
#X obj -84 -84 > 0;
#X obj 268 102 nbx 5 14 -1e+37 1e+37 0 0 empty empty empty 0 -8 0 10
#fcfcfc #000000 #000000 0 256;
#X obj 277 178 bng 15 250 50 0 empty empty empty 17 7 0 10 #fcfcfc
#000000 #000000;
#X obj 268 130 sel 0;
#X obj -84 73 sel 1;
#X obj 92 485 outlet~;
#X obj -84 -124 inlet;
#X msg 93 337 1 \$2 \, \$4 \$3 \$2;
#X connect 0 0 14 0;
#X connect 1 0 16 0;
#X connect 2 0 1 1;
#X connect 3 0 1 3;
#X connect 4 0 1 2;
#X connect 5 0 6 1;
#X connect 6 0 7 0;
#X connect 7 0 0 0;
#X connect 8 0 10 0;
#X connect 9 0 8 0;
#X connect 9 0 13 0;
#X connect 10 0 12 0;
#X connect 11 0 6 0;
#X connect 12 0 11 0;
#X connect 13 0 1 0;
#X connect 15 0 9 0;
#X connect 16 0 0 0;
#X coords 0 -1 1 1 85 160 2 100 100;
