#N canvas 562 330 2025 935 12;
#X obj 106 491 vline~;
#X obj 277 273 pack f f;
#X msg 277 314 0 \$2;
#X obj 268 55 change;
#X obj -84 -84 > 0;
#X obj 268 102 nbx 5 14 -1e+37 1e+37 0 0 empty empty empty 0 -8 0 10
#fcfcfc #000000 #000000 0 256;
#X obj 277 178 bng 15 250 50 0 empty empty empty 17 7 0 10 #fcfcfc
#000000 #000000;
#X obj 268 130 sel 0;
#X obj -84 73 sel 1;
#X obj 105 533 outlet~;
#X obj -84 -124 inlet;
#N canvas 0 0 450 250 (subpatch) 0;
#X array \$0-adsr 4 float 3;
#A 0 0.207143 0.371428 0.435719 0.0928562;
#X coords 0 1 4 0 100 140 1 0 0;
#X restore 100 100 graph;
#X obj 330 170 array get \$0-adsr 3 1;
#X obj 98 276 array get \$0-adsr 0 3;
#X msg 106 433 1 \$2 \, \$4 \$3 \$2;
#X obj 98 303 unpack float float float;
#X obj 93 384 pack f f f f;
#X obj 95 348 * 127;
#X obj 146 347 * 127;
#X obj 330 223 * 5000;
#X connect 0 0 9 0;
#X connect 1 0 2 0;
#X connect 2 0 0 0;
#X connect 3 0 5 0;
#X connect 4 0 3 0;
#X connect 4 0 8 0;
#X connect 5 0 7 0;
#X connect 6 0 12 0;
#X connect 6 0 1 0;
#X connect 7 0 6 0;
#X connect 8 0 13 0;
#X connect 8 0 16 0;
#X connect 10 0 4 0;
#X connect 12 0 19 0;
#X connect 13 0 15 0;
#X connect 14 0 0 0;
#X connect 15 0 17 0;
#X connect 15 1 18 0;
#X connect 15 2 16 3;
#X connect 16 0 14 0;
#X connect 17 0 16 1;
#X connect 18 0 16 2;
#X connect 19 0 1 1;
#X coords 0 -1 1 1 100 140 2 100 100;
