#N canvas -14 20 2560 1497 12;
#X msg 743 239 kick.wav;
#X obj 1696 570 dac~;
#X obj 1637 289 nbx 5 17 -1e+37 1e+37 0 0 empty empty empty 0 -10 0 12 #fcfcfc #000000 #000000 0 256;
#X obj 1637 315 s TEMPO;
#X obj 1702 406 catch~ MASTER;
#X obj 686 264 sample;
#X obj 686 1171 s end;
#X obj 686 52 r end;
#X obj 725 82 tgl 19 0 empty empty empty 0 -10 0 12 #fcfcfc #000000 #000000 0 1;
#X obj 686 109 spigot;
#X obj 696 81 bng 19 250 50 0 empty empty empty 0 -10 0 12 #fcfcfc #000000 #000000;
#X obj 1688 786 random 6;
#X obj 1688 823 > 5;
#X obj 1915 453 nbx 5 17 -1e+37 1e+37 0 0 empty empty empty 0 -10 0 12 #fcfcfc #000000 #000000 0 256;
#X obj 1592 455 redux;
#X obj 1624 371 nbx 5 17 -1e+37 1e+37 0 0 empty empty empty 0 -10 0 12 #fcfcfc #000000 #000000 0 256;
#X connect 0 0 5 1;
#X connect 2 0 3 0;
#X connect 4 0 14 0;
#X connect 7 0 9 0;
#X connect 8 0 9 1;
#X connect 9 0 5 0;
#X connect 10 0 9 0;
#X connect 11 0 12 0;
#X connect 14 0 1 0;
#X connect 14 0 1 1;
#X connect 15 0 14 1;
