#N canvas 432 184 1920 1105 12;
#X obj 619 642 vcf~;
#X obj 816 496 osc~;
#X obj 816 446 nbx 5 18 -1e+37 1e+37 0 0 empty empty empty 0 -10 0 12 #fcfcfc #000000 #000000 0 256;
#X obj 816 552 *~;
#X obj 815 600 +~;
#X obj 1007 534 nbx 5 18 -1e+37 1e+37 0 0 empty empty Depth 0 -10 0 12 #fcfcfc #000000 #000000 0 256;
#X obj 1007 582 nbx 5 18 -1e+37 1e+37 0 0 empty empty Central\ Freq 0 -10 0 12 #fcfcfc #000000 #000000 0 256;
#X obj 1007 624 nbx 5 18 -1e+37 1e+37 0 0 empty empty Res 0 -10 0 12 #fcfcfc #000000 #000000 0 256;
#X msg 1027 441 0;
#X obj 620 107 inlet~;
#X obj 619 789 outlet~;
#X obj 1132 516 bng 20 250 50 0 empty empty 1/16 0 -10 0 12 #fcfcfc #000000 #000000;
#X obj 1134 566 bng 20 250 50 0 empty empty 1/8 0 -10 0 12 #fcfcfc #000000 #000000;
#X obj 1132 608 bng 20 250 50 0 empty empty 1/4 0 -10 0 12 #fcfcfc #000000 #000000;
#X obj 1133 653 bng 20 250 50 0 empty empty 1/2 0 -10 0 12 #fcfcfc #000000 #000000;
#X obj 1130 698 bng 20 250 50 0 empty empty 1 0 -10 0 12 #fcfcfc #000000 #000000;
#X obj 1007 674 nbx 5 18 0 15000 0 0 empty empty Osc\ Freq 0 -10 0 12 #fcfcfc #000000 #000000 0 256;
#X msg 1224 542 1;
#X msg 1224 579 0.5;
#X msg 1224 625 0.25;
#X msg 1225 660 0.125;
#X msg 1224 699 0.0625;
#X obj 1342 869 nbx 5 18 -1e+37 1e+37 0 0 empty empty empty 0 -10 0 12 #fcfcfc #000000 #000000 0 256;
#X obj 1342 834 /;
#X obj 1342 448 * 0.001;
#X obj 1342 405 nbx 5 18 -1e+37 1e+37 0 0 empty empty empty 0 -10 0 12 #fcfcfc #000000 #000000 0 256;
#X obj 1393 553 nbx 5 18 -1e+37 1e+37 0 0 empty empty empty 0 -10 0 12 #fcfcfc #000000 #000000 0 256;
#X obj 1342 551 bng 20 250 50 0 empty empty empty 0 -10 0 12 #fcfcfc #000000 #000000;
#X obj 1247 782 nbx 5 18 -1e+37 1e+37 0 0 empty empty empty 0 -10 0 12 #fcfcfc #000000 #000000 0 256;
#X obj 1578 337 loadbang;
#X floatatom 1342 278 5 0 0 0 - r-metro - 0;
#X msg 1577 372 92;
#X msg 1616 374 292;
#X msg 1671 380 4;
#X msg 1678 506 0.01;
#X connect 0 0 10 0;
#X connect 1 0 3 0;
#X connect 2 0 1 0;
#X connect 3 0 4 0;
#X connect 4 0 0 1;
#X connect 5 0 3 1;
#X connect 6 0 4 1;
#X connect 7 0 0 2;
#X connect 8 0 1 1;
#X connect 9 0 0 0;
#X connect 11 0 17 0;
#X connect 12 0 18 0;
#X connect 13 0 19 0;
#X connect 14 0 20 0;
#X connect 15 0 21 0;
#X connect 16 0 2 0;
#X connect 17 0 28 0;
#X connect 18 0 28 0;
#X connect 19 0 28 0;
#X connect 20 0 28 0;
#X connect 21 0 28 0;
#X connect 22 0 16 0;
#X connect 23 0 22 0;
#X connect 24 0 27 0;
#X connect 24 0 26 0;
#X connect 25 0 24 0;
#X connect 26 0 23 1;
#X connect 27 0 23 0;
#X connect 28 0 23 0;
#X connect 29 0 31 0;
#X connect 29 0 32 0;
#X connect 29 0 33 0;
#X connect 29 0 34 0;
#X connect 30 0 25 0;
#X connect 30 0 8 0;
#X connect 31 0 5 0;
#X connect 32 0 6 0;
#X connect 33 0 7 0;
#X connect 34 0 28 0;
#X coords 0 -1 1 1 200 230 1 1000 500;
