#N canvas 0 32 2560 1497 12;
#X obj 913 -134 abs~;
#X obj 914 -32 -~;
#X obj 915 36 *~;
#X obj 916 103 +~;
#X obj 932 -61 r \$0-threshold;
#X obj 934 75 r \$0-threshold;
#X obj 933 7 r \$0-ratio;
#X obj 916 139 /~;
#X obj 1200 19 +~ 0;
#X obj 900 435 *~;
#X obj 918 321 lop~;
#X obj 1503 115 nbx 5 14 -1e+37 1e+37 0 0 empty empty thresh 0 -8 0 10 #fcfcfc #000000 #000000 0 256;
#X obj 1560 115 nbx 5 14 -1e+37 1e+37 0 0 empty empty ratio 0 -8 0 10 #fcfcfc #000000 #000000 0 256;
#X obj 1522 278 s \$0-threshold;
#X obj 1636 275 s \$0-ratio;
#X obj 943 290 r \$0-response;
#X obj 1730 291 s \$0-response;
#X obj 1617 115 nbx 5 14 -1e+37 1e+37 0 0 empty empty response 0 -8 0 10 #fcfcfc #000000 #000000 0 256;
#X obj 959 504 line~;
#X obj 959 461 pack f 5;
#X obj 959 417 r \$0-gain;
#X obj 901 564 *~;
#X obj 1674 115 nbx 5 14 -1e+37 1e+37 0 0 empty empty gain 0 -8 0 10 #fcfcfc #000000 #000000 0 256;
#X obj 1849 259 s \$0-gain;
#X obj 1522 175 + 100;
#X obj 1522 222 dbtorms;
#X obj 1636 191 swap 1;
#X obj 1636 237 /;
#X obj 1730 251 /;
#X obj 1730 205 swap 1000;
#X obj 1849 168 + 100;
#X obj 1849 216 dbtorms;
#X obj 917 370 *~ 1;
#X obj 633 -62 delwrite~ \$0-lookaheadbuf 1000;
#X obj 640 113 delread~ \$0-lookaheadbuf 0;
#X obj 752 -353 tgl 15 0 empty empty empty 17 7 0 10 #fcfcfc #000000 #000000 0 1;
#X obj 734 -244 *~;
#X obj 817 -245 *~;
#X obj 901 634 outlet~;
#X obj 733 -482 inlet~;
#X obj 817 -379 inlet~;
#X obj 835 -292 tgl 15 0 empty empty empty 17 7 0 10 #fcfcfc #000000 #000000 0 1;
#X obj 752 -398 - 1;
#X obj 1528 13 inlet;
#X obj 1642 13 inlet;
#X obj 1736 12 inlet;
#X obj 1855 7 inlet;
#X obj 1732 115 nbx 5 14 -1e+37 1e+37 0 0 empty empty lookahead 0 -8 0 10 #fcfcfc #000000 #000000 0 256;
#X obj 1942 7 inlet;
#X obj 1936 259 s \$0-lookahead;
#X obj 640 61 r \$0-lookahead;
#X msg 1788 11 40;
#X obj 1666 -72 loadbang;
#X obj 1791 114 tgl 15 0 empty empty side\ chain 17 7 0 10 #fcfcfc #000000 #000000 0 1;
#X obj 2016 218 s \$0-sidechain;
#X obj 752 -445 r \$0-sidechain;
#X msg 2027 7 1;
#X msg 1578 11 -33;
#X msg 1691 13 18;
#X msg 1825 12 9;
#X obj 994 -379 loadbang;
#X obj 988 -313 sig~ 0.001;
#X obj 917 256 clip~ 0 1;
#X connect 0 0 1 0;
#X connect 0 0 8 0;
#X connect 1 0 2 0;
#X connect 2 0 3 0;
#X connect 3 0 7 0;
#X connect 4 0 1 1;
#X connect 5 0 3 1;
#X connect 6 0 2 1;
#X connect 7 0 62 0;
#X connect 8 0 7 1;
#X connect 9 0 21 0;
#X connect 10 0 32 0;
#X connect 11 0 24 0;
#X connect 12 0 26 0;
#X connect 15 0 10 1;
#X connect 17 0 29 0;
#X connect 18 0 21 1;
#X connect 19 0 18 0;
#X connect 20 0 19 0;
#X connect 21 0 38 0;
#X connect 22 0 30 0;
#X connect 24 0 25 0;
#X connect 25 0 13 0;
#X connect 26 0 27 0;
#X connect 26 1 27 1;
#X connect 27 0 14 0;
#X connect 28 0 16 0;
#X connect 29 0 28 0;
#X connect 29 1 28 1;
#X connect 30 0 31 0;
#X connect 31 0 23 0;
#X connect 32 0 9 1;
#X connect 34 0 9 0;
#X connect 35 0 36 1;
#X connect 36 0 0 0;
#X connect 37 0 0 0;
#X connect 39 0 36 0;
#X connect 39 0 33 0;
#X connect 40 0 37 0;
#X connect 41 0 37 1;
#X connect 42 0 35 0;
#X connect 43 0 11 0;
#X connect 44 0 12 0;
#X connect 45 0 17 0;
#X connect 46 0 22 0;
#X connect 47 0 49 0;
#X connect 48 0 47 0;
#X connect 50 0 34 0;
#X connect 51 0 17 0;
#X connect 52 0 57 0;
#X connect 52 0 58 0;
#X connect 52 0 51 0;
#X connect 52 0 22 0;
#X connect 52 0 47 0;
#X connect 52 0 56 0;
#X connect 52 0 59 0;
#X connect 53 0 54 0;
#X connect 55 0 42 0;
#X connect 55 0 41 0;
#X connect 56 0 53 0;
#X connect 57 0 11 0;
#X connect 58 0 12 0;
#X connect 59 0 22 0;
#X connect 60 0 61 0;
#X connect 61 0 37 0;
#X connect 62 0 10 0;
#X coords 0 -1 1 1 370 33 2 1500 100;
