#N canvas 673 480 887 460 12;
#X obj 326 170 int;
#X obj 446 182 + 1;
#X obj 531 30 bng 15 250 50 0 s-RESET r-RESET RESET 17 7 0 10 #fcfcfc
#000000 #000000;
#X msg 531 51 0;
#X obj 326 288 outlet;
#X obj 285 61 inlet;
#X obj 353 57 inlet;
#X obj 531 1 loadbang;
#X connect 0 0 1 0;
#X connect 0 0 4 0;
#X connect 1 0 0 1;
#X connect 2 0 3 0;
#X connect 3 0 0 1;
#X connect 5 0 0 0;
#X connect 6 0 0 1;
#X connect 7 0 2 0;
