#N canvas 1379 164 1080 1029 12;
#X obj 319 158 +;
#X obj 350 844 nbx 5 14 0 256 0 0 empty empty empty 0 -8 0 10 #fcfcfc
#000000 #000000 0 256;
#X obj 318 886 redux;
#X obj 268 260 phasor~;
#X obj 321 315 expr~ ($v1 * 2) - 1;
#X obj 319 108 mtof;
#X obj 360 260 phasor~ 0.5;
#X obj 360 218 * 2.01;
#X obj 350 758 loadbang;
#X msg 350 803 3;
#X obj 320 362 lop~ 300;
#X obj 319 70 inlet;
#X obj 317 950 outlet~;
#X obj 337 441 inlet;
#X obj 337 496 adsr \$1;
#X obj 319 711 *~;
#X connect 0 0 7 0;
#X connect 0 0 3 0;
#X connect 1 0 2 1;
#X connect 2 0 12 0;
#X connect 3 0 4 0;
#X connect 4 0 10 0;
#X connect 5 0 0 0;
#X connect 6 0 4 0;
#X connect 7 0 6 0;
#X connect 8 0 9 0;
#X connect 9 0 1 0;
#X connect 10 0 15 0;
#X connect 11 0 5 0;
#X connect 13 0 14 0;
#X connect 14 0 15 1;
#X connect 15 0 2 0;
#X coords 0 -1 1 1 85 160 2 337 496;
