#N canvas 414 256 1461 990 12;
#X obj 568 565 nbx 5 14 -1e+37 1e+37 0 0 empty empty empty 0 -8 0 10
#fcfcfc #000000 #000000 0 256;
#X obj 535 681 nbx 5 14 -1e+37 1e+37 0 0 empty empty empty 0 -8 0 10
#fcfcfc #000000 #000000 0 256;
#X obj 535 648 snap2scale;
#X obj 568 532 +;
#X obj 568 493 clip 0 12;
#X obj 753 536 nbx 5 14 -1e+37 1e+37 0 0 empty empty empty 0 -8 0 10
#fcfcfc #000000 #000000 0 256;
#X obj 753 493 clip 0 1;
#X obj 535 747 outlet;
#X obj 753 593 outlet;
#X obj 104 107 nbx 5 14 -1e+37 1e+37 0 0 empty empty empty 0 -8 0 10
#fcfcfc #000000 #000000 0 256;
#X obj 165 107 nbx 5 14 0 2 0 0 empty empty empty 0 -8 0 10 #fcfcfc
#000000 #000000 0 256;
#N canvas 0 0 1343 909 (subpatch) 0;
#X array \$0-sss 16 float 3;
#A 0 -3.34305 -3.6002 -3.85735 -4.20021 -4.20021 -4.20021 2.05714 0.85714
0.257139 -0.171432 -0.428576 -0.428576 0.171425 1.28571 3.68571 5.48571
;
#X coords 0 12 16 0 208 140 2 0 0;
#X restore 100 140 graph;
#X obj 226 107 nbx 5 14 1 4 0 0 empty empty empty 0 -8 0 10 #fcfcfc
#000000 #000000 0 256;
#X obj 569 428 nbx 5 14 -1e+37 1e+37 0 0 empty empty empty 0 -8 0 10
#fcfcfc #000000 #000000 0 256;
#X obj 569 356 simpleseq \$0-sss;
#X obj 753 428 nbx 5 14 -1e+37 1e+37 0 0 empty empty empty 0 -8 0 10
#fcfcfc #000000 #000000 0 256;
#X obj 753 356 simpleseq \$0-xxx;
#N canvas 0 0 1343 909 (subpatch) 0;
#X array \$0-xxx 16 float 3;
#A 0 2.21277 -0.851046 -0.851046 2.38298 -0.936152 -1.10636 2.29787
-1.10636 -1.10636 -1.10636 2.46809 -1.10636 2.38298 2.46809 2.46809
-0.595729;
#X coords 0 12 16 0 208 141 1 0 0;
#X restore 100 293 graph;
#X obj 100 280 hradio 13 1 0 16 empty empty empty 0 -8 0 10 #ffffff
#000000 #000000 0;
#X obj 681 79 inlet;
#X obj 101 124 cnv 15 100 12 empty empty empty 20 12 0 14 #ffffff #404040
0;
#X msg 104 33 40;
#X obj 104 1 loadbang;
#X msg 165 47 1;
#X connect 0 0 2 1;
#X connect 1 0 7 0;
#X connect 2 0 1 0;
#X connect 3 0 0 0;
#X connect 4 0 3 0;
#X connect 5 0 8 0;
#X connect 6 0 5 0;
#X connect 9 0 3 1;
#X connect 9 0 2 0;
#X connect 10 0 2 2;
#X connect 12 0 14 1;
#X connect 12 0 16 1;
#X connect 13 0 4 0;
#X connect 14 0 13 0;
#X connect 15 0 6 0;
#X connect 16 0 15 0;
#X connect 19 0 14 0;
#X connect 19 0 16 0;
#X connect 19 0 18 0;
#X connect 21 0 9 0;
#X connect 22 0 21 0;
#X connect 22 0 23 0;
#X connect 23 0 10 0;
#X coords 0 -1 1 1 208 334 2 100 100;
