#N canvas 733 172 450 300 12;
#X obj 396 1212 *~;
#X obj 538 1163 - 1;
#X obj 340 1212 *~;
#X obj 363 1275 +~;
#X obj 340 1039 inlet~;
#X obj 538 1039 inlet;
#X obj 396 1039 inlet~;
#X obj 363 1344 outlet~;
#X connect 0 0 3 1;
#X connect 1 0 0 1;
#X connect 2 0 3 0;
#X connect 3 0 7 0;
#X connect 4 0 2 0;
#X connect 5 0 1 0;
#X connect 5 0 2 1;
#X connect 6 0 0 0;
