#N canvas 73 26 2486 1344 12;
#X obj -177 7 snapshot~;
#X obj -18 -141 bng 15 250 50 0 empty empty empty 17 7 0 10 #fcfcfc
#000000 #000000;
#X obj 45 -242 metro 5;
#X obj 45 -348 bng 15 250 50 0 empty empty empty 17 7 0 10 #fcfcfc
#000000 #000000;
#X obj -168 102 nbx 5 14 -1e+37 1e+37 0 0 empty empty empty 0 -8 0
10 #fcfcfc #000000 #000000 0 256;
#X obj -177 -226 line~;
#X obj -367 37 osc~;
#X obj -261 139 *~;
#X obj 356 394 dac~;
#X obj -469 123 osc~;
#X obj -497 -12 *~ 2;
#X obj -304 -812 random 8;
#X obj 243 -491 bng 15 250 50 0 empty empty empty 17 7 0 10 #fcfcfc
#000000 #000000;
#X obj -386 -733 sel 0;
#X obj -386 -688 + 0;
#X obj -314 -688 + 2;
#X obj -314 -733 sel 1;
#X obj -172 -688 + 5;
#X obj -172 -733 sel 3;
#X obj -243 -733 sel 2;
#X obj -243 -688 + 4;
#X obj -101 -688 + 7;
#X obj -101 -733 sel 4;
#X obj -30 -688 + 9;
#X obj -30 -733 sel 5;
#X obj 39 -733 sel 6;
#X obj 39 -688 + 11;
#X obj 110 -688 + 12;
#X obj 110 -733 sel 7;
#X obj -560 -812 nbx 5 14 -1e+37 1e+37 0 0 empty empty empty 0 -8 0
10 #fcfcfc #000000 #000000 0 256;
#X obj -568 -550 +;
#X obj -554 -475 nbx 5 14 -1e+37 1e+37 0 0 empty empty empty 0 -8 0
10 #fcfcfc #000000 #000000 0 256;
#X obj -540 -400 mtof;
#X obj 535 -736 + 5;
#X obj 606 -736 + 7;
#X obj 677 -736 + 9;
#X obj 746 -736 + 11;
#X obj 817 -736 + 12;
#X obj 489 -516 nbx 5 14 -1e+37 1e+37 0 0 empty empty empty 0 -8 0
10 #fcfcfc #000000 #000000 0 256;
#X obj 321 -781 sel 0;
#X obj 321 -736 + 0;
#X obj 393 -781 sel 1;
#X obj 535 -781 sel 3;
#X obj 464 -781 sel 2;
#X obj 604 -790 sel 4;
#X obj 675 -790 sel 5;
#X obj 744 -790 sel 6;
#X obj 815 -790 sel 7;
#X obj 401 -341 mtof;
#X msg 432 -896 seed 1111;
#X obj 243 -448 nbx 5 14 -1e+37 1e+37 0 0 empty empty empty 0 -8 0
10 #fcfcfc #000000 #000000 0 256;
#X obj 243 -393 +;
#X obj -251 199 *~ 0.1;
#X msg -177 -265 1 \, 0 2000;
#X obj 787 -51 readsf~;
#X obj 771 -254 bng 15 250 50 0 empty empty empty 17 7 0 10 #fcfcfc
#000000 #000000;
#X obj 460 -112 *~ 3;
#X obj 462 56 compressor;
#X obj 801 210 compressor;
#X obj 504 182 nbx 5 14 -1e+37 1e+37 0 0 empty empty empty 0 -8 0 10
#fcfcfc #000000 #000000 0 256;
#X obj 666 -865 metro 200;
#X obj 685 -895 bng 15 250 50 0 empty empty empty 17 7 0 10 #fcfcfc
#000000 #000000;
#X obj 402 -870 random 3;
#X obj 501 -198 lop~ 500;
#X obj 495 -241 phasor~;
#X obj 997 -139 compressor;
#X msg 791 -83 open beat.wav \, 1;
#X obj 393 -736 + 0;
#X obj 464 -736 + 0;
#X connect 0 0 4 0;
#X connect 1 0 0 0;
#X connect 2 0 1 0;
#X connect 3 0 2 0;
#X connect 5 0 0 0;
#X connect 5 0 7 1;
#X connect 6 0 7 0;
#X connect 7 0 52 0;
#X connect 10 0 9 0;
#X connect 11 0 13 0;
#X connect 11 0 16 0;
#X connect 11 0 19 0;
#X connect 11 0 18 0;
#X connect 11 0 22 0;
#X connect 11 0 24 0;
#X connect 11 0 25 0;
#X connect 11 0 28 0;
#X connect 12 0 50 0;
#X connect 13 0 14 0;
#X connect 14 0 30 1;
#X connect 15 0 30 1;
#X connect 16 0 15 0;
#X connect 17 0 30 1;
#X connect 18 0 17 0;
#X connect 19 0 20 0;
#X connect 20 0 30 1;
#X connect 21 0 30 1;
#X connect 22 0 21 0;
#X connect 23 0 30 1;
#X connect 24 0 23 0;
#X connect 25 0 26 0;
#X connect 26 0 30 1;
#X connect 27 0 30 1;
#X connect 28 0 27 0;
#X connect 29 0 30 0;
#X connect 30 0 31 0;
#X connect 31 0 32 0;
#X connect 32 0 6 0;
#X connect 32 0 53 0;
#X connect 33 0 38 0;
#X connect 34 0 38 0;
#X connect 35 0 38 0;
#X connect 36 0 38 0;
#X connect 37 0 38 0;
#X connect 38 0 51 1;
#X connect 38 0 12 0;
#X connect 39 0 40 0;
#X connect 40 0 38 0;
#X connect 41 0 67 0;
#X connect 42 0 33 0;
#X connect 43 0 68 0;
#X connect 44 0 34 0;
#X connect 45 0 35 0;
#X connect 46 0 36 0;
#X connect 47 0 37 0;
#X connect 48 0 64 0;
#X connect 49 0 62 0;
#X connect 50 0 51 0;
#X connect 51 0 48 0;
#X connect 53 0 5 0;
#X connect 54 0 58 0;
#X connect 54 0 57 1;
#X connect 55 0 66 0;
#X connect 56 0 57 0;
#X connect 57 0 8 0;
#X connect 57 0 8 1;
#X connect 58 0 8 0;
#X connect 58 0 8 1;
#X connect 60 0 62 0;
#X connect 61 0 60 0;
#X connect 62 0 43 0;
#X connect 62 0 42 0;
#X connect 62 0 44 0;
#X connect 62 0 45 0;
#X connect 62 0 47 0;
#X connect 62 0 39 0;
#X connect 62 0 46 0;
#X connect 62 0 41 0;
#X connect 63 0 56 0;
#X connect 64 0 63 0;
#X connect 65 0 8 1;
#X connect 65 0 8 0;
#X connect 66 0 54 0;
#X connect 67 0 38 0;
#X connect 68 0 38 0;
