#N canvas 980 186 1224 873 12;
#X obj 58 558 until;
#X obj 58 590 int;
#X obj 163 600 + 1;
#X msg 58 451 16;
#X obj 58 627 % 16;
#X obj 227 537 until;
#X obj 227 579 int;
#X obj 333 590 + 1;
#X obj 227 621 % 16;
#X obj 315 697 + 16;
#X obj 190 299 inlet;
#X obj 146 728 +;
#X obj 315 731 +;
#X obj 58 345 inlet;
#X obj 58 670 tabread \$1;
#X obj 227 665 tabread \$2;
#X obj 58 766 tabwrite \$3;
#X obj 227 768 tabwrite \$3;
#X obj 189 345 * 32;
#X connect 0 0 1 0;
#X connect 1 0 2 0;
#X connect 1 0 4 0;
#X connect 2 0 1 1;
#X connect 3 0 0 0;
#X connect 3 0 5 0;
#X connect 4 0 11 0;
#X connect 4 0 14 0;
#X connect 5 0 6 0;
#X connect 6 0 7 0;
#X connect 6 0 8 0;
#X connect 7 0 6 1;
#X connect 8 0 9 0;
#X connect 8 0 15 0;
#X connect 9 0 12 0;
#X connect 10 0 18 0;
#X connect 11 0 16 1;
#X connect 12 0 17 1;
#X connect 13 0 3 0;
#X connect 14 0 16 0;
#X connect 15 0 17 0;
#X connect 18 0 12 1;
#X connect 18 0 11 1;
