#N canvas 0 0 1195 936 12;
#X obj 324 595 inlet~;
#X obj 325 690 outlet~;
#X obj 517 580 inlet;
#X obj 324 639 expr~ round($v1 * $f2) / $f2;
#X connect 0 0 3 0;
#X connect 2 0 3 1;
#X connect 3 0 1 0;
