#N canvas -14 20 2560 1497 12;
#X obj -895 -432 soundfiler;
#X obj -895 -312 nbx 5 14 -1e+37 1e+37 0 0 empty empty empty 0 -8 0 10 #fcfcfc #000000 #000000 0 256;
#X obj -963 70 abs;
#X obj -742 -164 expr 44100/$f1;
#X obj -1114 120 /;
#X obj -690 -51 nbx 5 14 -1e+37 1e+37 0 0 empty empty empty 0 -8 0 10 #fcfcfc #000000 #000000 0 256;
#X obj -1116 187 delay 0 1 samp;
#X obj -736 242 *;
#X obj -1205 294 bng 15 250 50 0 empty empty empty 17 7 0 10 #fcfcfc #000000 #000000;
#X msg -1041 389 0;
#X msg -1119 389 0;
#X obj -1118 481 phasor~;
#X obj -948 622 *~;
#X obj -948 622 *~;
#X obj -332 -184 inlet;
#X msg -578 -164 1;
#X obj -578 -207 loadbang;
#X obj -951 838 outlet~;
#X obj -895 -728 inlet;
#X obj -1038 -705 inlet;
#X obj -969 -457 bng 15 250 50 0 empty empty empty 17 7 0 10 #fcfcfc #000000 #000000;
#X obj -518 -521 array define \$0-x;
#X obj -803 -669 f \$0;
#X obj -803 -726 loadbang;
#X msg -361 -472 100;
#X obj -344 -626 loadbang;
#X obj -501 -403 array size \$0-x;
#X obj -948 706 tabread~ \$0-x;
#X obj -895 -595 pack s f;
#X obj -803 -695 bng 15 250 50 0 empty empty empty 17 7 0 10 #fcfcfc #000000 #000000;
#X obj -942 766 *~;
#X obj -520 -481 array define \$0-y;
#X obj -265 -382 array size \$0-y;
#X msg -895 -504 read -resize \$1 \$2-x \$2-y;
#X obj -789 841 outlet~;
#X obj -755 701 tabread~ \$0-y;
#X obj -774 770 *~;
#X connect 0 0 1 0;
#X connect 1 0 4 0;
#X connect 1 0 12 1;
#X connect 1 0 3 0;
#X connect 2 0 4 1;
#X connect 3 0 7 0;
#X connect 4 0 6 0;
#X connect 5 0 2 0;
#X connect 5 0 7 1;
#X connect 6 0 10 0;
#X connect 6 0 8 0;
#X connect 7 0 11 0;
#X connect 7 0 9 0;
#X connect 9 0 11 1;
#X connect 10 0 11 1;
#X connect 10 0 11 0;
#X connect 11 0 12 0;
#X connect 12 0 27 0;
#X connect 12 0 35 0;
#X connect 14 0 5 0;
#X connect 15 0 5 0;
#X connect 16 0 15 0;
#X connect 18 0 28 0;
#X connect 19 0 20 0;
#X connect 19 0 30 1;
#X connect 19 0 36 1;
#X connect 20 0 1 0;
#X connect 22 0 28 1;
#X connect 23 0 29 0;
#X connect 24 0 26 0;
#X connect 24 0 32 0;
#X connect 25 0 24 0;
#X connect 27 0 30 0;
#X connect 28 0 33 0;
#X connect 29 0 22 0;
#X connect 30 0 17 0;
#X connect 33 0 0 0;
#X connect 35 0 36 0;
#X connect 36 0 34 0;
