#N canvas 635 342 1362 710 12;
#X obj 686 264 sampler;
#X obj 688 106 inlet;
#X obj 615 371 outlet;
#X obj 686 306 throw~ MASTER;
#X obj 749 105 inlet;
#X msg 687 226 1;
#X obj 122 130 bng 19 250 50 0 empty empty empty 0 -10 0 12 #fcfcfc #000000 #000000;
#X obj 688 139 tempo;
#X connect 0 0 3 0;
#X connect 1 0 7 0;
#X connect 4 0 0 1;
#X connect 5 0 0 0;
#X connect 7 0 5 0;
#X connect 7 0 2 0;
#X connect 7 0 6 0;
#X coords 0 -1 1 1 64 64 1 100 100;
