#N canvas 757 493 971 650 12;
#X msg -29 16 sam;
#X obj 200 104 bng 15 250 50 0 empty empty empty 17 7 0 10 #fcfcfc #000000 #000000;
#X obj 281 325 s /s/\$1/1;
#X obj 256 96 r /r/\$1/1;
#X obj 458 102 bng 15 250 50 0 empty empty empty 17 7 0 10 #fcfcfc #000000 #000000;
#X obj 404 23 r /r/\$1/4;
#X obj 404 83 s /s/\$1/4;
#X obj -296 93 bng 15 250 50 0 empty empty empty 17 7 0 10 #fcfcfc #000000 #000000;
#X obj 92 243 r /r/\$1/7;
#X obj 92 303 s /s/\$1/7;
#X connect 0 0 1 0;
#X connect 1 0 2 0;
#X connect 1 0 4 0;
#X connect 3 0 1 0;
#X connect 4 0 6 0;
#X connect 5 0 4 0;
#X connect 7 0 9 0;
#X connect 7 0 1 0;
#X connect 8 0 7 0;
