#N canvas 757 493 971 650 12;
#X obj -294 -169 xxx sam/0;
#X obj 488.5 -185 xxx sam/1;
#X obj 98 -399.5 metro;
#X obj 215 -513 hsl 128 15 0 127 0 0 {s} {r} empty -2 -3 0 12 -262144 -1 -1 0 1;
#X obj 68 -525 bng 15 250 50 0 empty empty empty 17 7 0 10 #fcfcfc #000000 #000000;
#X msg -295 169 open hat.wav , 1;
#X obj -291.666687011719 291.666625976562 readsf~;
#X obj -289 592.5 dac~;
#X obj 499.833374023438 226.833312988281 acid sam/8;
#X obj 710 147 nbx 2 14 -1e+37 1e+37 0 0 empty empty empty 0 -8 0 10;
#X connect 2 0 0 0;
#X connect 2 0 1 0;
#X connect 3 0 2 1;
#X connect 4 0 2 0;
#X connect 0 0 5 0;
#X connect 5 0 6 0;
#X connect 1 0 9 0;
#X connect 9 0 8 0;
