#N canvas 757 493 971 650 12;
#X obj -151.333251953125 -587.666625976562 xxx sam/0;
#X obj -332.5 -509.000061035156 metro;
#X obj -237 -841 hsl 128 15 0 127 0 0 {s} {r} empty -2 -3 0 12 -262144 -1 -1 0 1;
#X obj -367.5 -617.000061035156 bng 15 250 50 0 empty empty empty 17 7 0 10 #fcfcfc #000000 #000000;
#X obj -487 1493 dac~;
#X obj -158.25 -127.75 xxx sam/5;
#X obj -850.333374023438 1098 tabread4~ soundData;
#X msg -794.333374023438 -288.999938964844 read -resize kick.wav soundData;
#X obj -791.333374023438 -217.999938964844 soundfiler;
#X array soundData 100 float 3;
#X obj -791.333374023438 -392.999938964844 bng 15 250 50 0 empty empty empty 17 7 0 10 #fcfcfc #000000 #000000;
#X obj -801.333374023438 21.0000610351562 nbx 2 14 -1e+37 1e+37 0 0 empty empty empty 0 -8 0 10;
#X obj -1024.33337402344 815.000061035156 phasor~;
#X obj -854.333374023438 956 *~;
#X obj -160.5 -356.000061035156 xxx sam/14;
#X obj -1022.33337402344 521.000061035156 delay $1 1 samp;
#X msg -1025.33337402344 723.000061035156 0;
#X obj -683.333374023438 -116.999938964844 bng 15 250 50 0 empty empty empty 17 7 0 10 #fcfcfc #000000 #000000;
#X obj -255 -648 * 3;
#X msg -947.333374023438 722.000061035156 0;
#X obj -648.333374023438 169.000061035156 expr 44100/$f1;
#X obj -1020.33337402344 454.000061035156 /;
#X obj -596.333374023438 282.000061035156 nbx 2 14 -1e+37 1e+37 0 0 empty empty empty 0 -8 0 10;
#X obj -642.333374023438 576.000061035156 *;
#X obj -869.333374023438 404.000061035156 abs;
#X obj -94.1428833007812 221.714294433594 hsl 128 15 0 127 0 0 {s} {r} empty -2 -3 0 12 -262144 -1 -1 0 1;
#X obj 172 689 line;
#X obj -81 841 *~;
#X msg 183 485 set 1  , 0 300;
#X obj 394 619 bng 15 250 50 0 empty empty empty 17 7 0 10 #fcfcfc #000000 #000000;
#X obj 188 859 nbx 2 14 -1e+37 1e+37 0 0 empty empty empty 0 -8 0 10;
#X obj 144 269 bng 15 250 50 0 empty empty empty 17 7 0 10 #fcfcfc #000000 #000000;
#X obj -280 460 osc~;
#X obj -80 436 * 5;
#X obj 412.230712890625 435.230773925781 hsl 128 15 0 127 0 0 {s} {r} empty -2 -3 0 12 -262144 -1 -1 0 1;
#X obj -75.3333129882812 983 clip~ 0.1 0.5;
#X obj -74 923 *~ 1;
#X obj 886.5 582.500183105469 readsf~;
#X msg 877 365 open hat.wav  , 1;
#X obj 32 689 *~ 1;
#X obj 49 1041 *~;
#X obj -71.9999694824219 1114.66662597656 vcf~;
#X obj 537 1097 hsl 128 15 0 127 0 0 {s} {r} empty -2 -3 0 12 -262144 -1 -1 0 1;
#X obj -1111.33337402344 628.000061035156 bng 15 250 50 0 empty empty empty 17 7 0 10 #fcfcfc #000000 #000000;
#X connect 1 0 0 0;
#X connect 3 0 1 0;
#X connect 1 0 5 0;
#X connect 7 0 8 0;
#X connect 10 0 7 0;
#X connect 8 0 11 0;
#X connect 12 0 13 0;
#X connect 1 0 14 0;
#X connect 15 0 16 0;
#X connect 16 0 12 1;
#X connect 16 0 12 0;
#X connect 13 0 6 0;
#X connect 17 0 11 0;
#X connect 5 0 17 0;
#X connect 2 0 18 0;
#X connect 18 0 1 1;
#X connect 11 0 13 1;
#X connect 19 0 12 1;
#X connect 11 0 20 0;
#X connect 11 0 21 0;
#X connect 21 0 15 0;
#X connect 20 0 23 0;
#X connect 23 0 12 0;
#X connect 22 0 23 1;
#X connect 23 0 19 0;
#X connect 24 0 21 1;
#X connect 22 0 24 0;
#X connect 28 0 26 0;
#X connect 28 0 29 0;
#X connect 26 0 30 0;
#X connect 31 0 28 0;
#X connect 14 0 31 0;
#X connect 26 0 27 1;
#X connect 25 0 32 0;
#X connect 25 0 33 0;
#X connect 27 0 36 0;
#X connect 36 0 35 0;
#X connect 38 0 37 0;
#X connect 37 0 4 1;
#X connect 37 0 4 0;
#X connect 39 0 27 0;
#X connect 0 0 38 0;
#X connect 6 0 4 0;
#X connect 6 0 4 1;
#X connect 30 0 35 2;
#X connect 32 0 35 0;
#X connect 32 0 27 0;
#X connect 32 0 36 0;
#X connect 33 0 36 0;
#X connect 35 0 40 0;
#X connect 30 0 40 1;
#X connect 35 0 41 0;
#X connect 41 0 4 0;
#X connect 40 0 41 0;
#X connect 41 0 4 1;
#X connect 42 0 41 2;
#X connect 15 0 43 0;
