#N canvas 757 493 971 650 12;
#X obj 384.838928222656 377.787231445312 tgl 8 0 {s} {r} empty 17 7 0 10 #fcfcfc #000000 #000000 0 1;
#X obj 384.838928222656 341.787231445312 bng 15 250 50 0 empty empty empty 17 7 0 10 #fcfcfc #000000 #000000;
#X obj 385.838928222656 445.787231445312 spigot;
#X obj 158.838928222656 261.787231445312 metro;
#X obj 158.838928222656 354.787231445312 int 0;
#X obj 156.838928222656 509.787231445312 % 8;
#X obj 383.838928222656 284.787231445312 sel 0;
#X obj 157.838928222656 174.787231445312 bng 15 250 50 0 empty empty empty 17 7 0 10 #fcfcfc #000000 #000000;
#X obj 210.838928222656 91.7872314453125 nbx 2 14 -1e+37 1e+37 0 0 empty empty empty 0 -8 0 10;
#X obj 483.838928222656 445.787231445312 spigot;
#X obj 482.838928222656 341.787231445312 bng 15 250 50 0 empty empty empty 17 7 0 10 #fcfcfc #000000 #000000;
#X obj 482.838928222656 377.787231445312 tgl 8 0 {s} {r} empty 17 7 0 10 #fcfcfc #000000 #000000 0 1;
#X obj 481.838928222656 284.787231445312 sel 1;
#X obj 570.838928222656 447.787231445312 spigot;
#X obj 569.838928222656 343.787231445312 bng 15 250 50 0 empty empty empty 17 7 0 10 #fcfcfc #000000 #000000;
#X obj 568.838928222656 286.787231445312 sel 2;
#X obj 569.838928222656 379.787231445312 tgl 8 0 {s} {r} empty 17 7 0 10 #fcfcfc #000000 #000000 0 1;
#X obj 155.838928222656 587.787231445312 nbx 2 14 -1e+37 1e+37 0 0 empty empty empty 0 -8 0 10;
#X obj 239.838928222656 355.787231445312 + 1;
#X obj 664.838928222656 447.787231445312 spigot;
#X obj 663.838928222656 379.787231445312 tgl 8 0 {s} {r} empty 17 7 0 10 #fcfcfc #000000 #000000 0 1;
#X obj 663.838928222656 343.787231445312 bng 15 250 50 0 empty empty empty 17 7 0 10 #fcfcfc #000000 #000000;
#X obj 662.838928222656 286.787231445312 sel 3;
#X obj 754.838928222656 446.787231445312 spigot;
#X obj 754.838928222656 378.787231445312 tgl 8 0 {s} {r} empty 17 7 0 10 #fcfcfc #000000 #000000 0 1;
#X obj 754.838928222656 342.787231445312 bng 15 250 50 0 empty empty empty 17 7 0 10 #fcfcfc #000000 #000000;
#X obj 753.838928222656 285.787231445312 sel 4;
#X obj 846.838928222656 446.787231445312 spigot;
#X obj 846.838928222656 378.787231445312 tgl 8 0 {s} {r} empty 17 7 0 10 #fcfcfc #000000 #000000 0 1;
#X obj 846.838928222656 342.787231445312 bng 15 250 50 0 empty empty empty 17 7 0 10 #fcfcfc #000000 #000000;
#X obj 845.838928222656 285.787231445312 sel 5;
#X obj 931.838928222656 284.787231445312 sel 6;
#X obj 932.838928222656 341.787231445312 bng 15 250 50 0 empty empty empty 17 7 0 10 #fcfcfc #000000 #000000;
#X obj 932.838928222656 377.787231445312 tgl 8 0 {s} {r} empty 17 7 0 10 #fcfcfc #000000 #000000 0 1;
#X obj 932.838928222656 445.787231445312 spigot;
#X obj 1016.83892822266 447.787231445312 spigot;
#X obj 1015.83892822266 286.787231445312 sel 7;
#X obj 1016.83892822266 379.787231445312 tgl 8 0 {s} {r} empty 17 7 0 10 #fcfcfc #000000 #000000 0 1;
#X obj 1016.83892822266 343.787231445312 bng 15 250 50 0 empty empty empty 17 7 0 10 #fcfcfc #000000 #000000;
#X msg 210.838928222656 25.7872314453125 100;
#X obj 209.838928222656 -39.2127685546875 loadbang;
#X connect 0 0 2 1;
#X connect 1 0 2 0;
#X connect 3 0 4 0;
#X connect 4 0 5 0;
#X connect 5 0 6 0;
#X connect 6 0 1 0;
#X connect 7 0 3 0;
#X connect 8 0 3 1;
#X connect 11 0 9 1;
#X connect 10 0 9 0;
#X connect 12 0 10 0;
#X connect 5 0 12 0;
#X connect 16 0 13 1;
#X connect 15 0 14 0;
#X connect 14 0 13 0;
#X connect 5 0 15 0;
#X connect 5 0 17 0;
#X connect 4 0 18 0;
#X connect 18 0 4 1;
#X connect 20 0 19 1;
#X connect 21 0 19 0;
#X connect 22 0 21 0;
#X connect 24 0 23 1;
#X connect 25 0 23 0;
#X connect 26 0 25 0;
#X connect 28 0 27 1;
#X connect 29 0 27 0;
#X connect 30 0 29 0;
#X connect 31 0 32 0;
#X connect 33 0 34 1;
#X connect 32 0 34 0;
#X connect 37 0 35 1;
#X connect 36 0 38 0;
#X connect 38 0 35 0;
#X connect 5 0 22 0;
#X connect 5 0 26 0;
#X connect 5 0 30 0;
#X connect 5 0 31 0;
#X connect 5 0 36 0;
#X connect 39 0 8 0;
#X connect 40 0 39 0;
#X coords 0 -1 1 1 755.333068847656 339.666870117188 2 343.999938964844 178.666564941406;
