#N canvas 626 203 1354 1042 12;
#X obj 238 45 loadbang;
#X obj 205 154 metro;
#X obj 60 156 loadbang;
#X obj 205 115 tgl 15 0 /s/\$1/3 /r/\$1/3 empty 17 7 0 10 #fcfcfc #000000 #000000 0 1;
#X floatatom 238 133 5 0 0 0 - - - 0;
#X obj 141 156 sel 0;
#X obj 140 251 bng 15 250 50 0 /s/\$1/6 /r/\$1/6 empty 17 7 0 10 #fcfcfc #000000 #000000;
#X obj 206 251 bng 15 250 50 0 /s/\$1/7 /r/\$1/7 empty 17 7 0 10 #fcfcfc #000000 #000000;
#X msg 238 89 375;
#X obj 211 318 int 0;
#X obj 314 380 + 1;
#X msg 140 290 0;
#X msg 544 221 open 09_Hat_01_SP.wav  \, 1;
#X obj 544 265 readsf~;
#X obj 382 182 bng 15 250 50 0 /s/\$1/14 /r/\$1/14 empty 17 7 0 10 #fcfcfc #000000 #000000;
#X obj 504 993 dac~;
#X obj 207 380 send clock;
#X obj 865 318 receive clock;
#X obj 795 257 readsf~;
#X obj 795 174 bng 15 250 50 0 /s/\$1/19 /r/\$1/19 empty 17 7 0 10 #fcfcfc #000000 #000000;
#X msg 795 213 open 09_Kick_01_SP.wav  \, 1;
#X obj 504 949 clip~ -0.1 0.1;
#X obj 195 630 acid \$1/22;
#X floatatom 195 587 5 0 0 0 - - - 0;
#X obj 873 440 8seq \$1/24;
#X obj 795 50 8seq \$1/25;
#X obj 795 6 receive clock;
#X obj 544 630 *~ 0.1;
#X obj 358 50 8seq \$1/28;
#X obj 358 6 receive clock;
#X obj 194 693 *~ 0.3;
#X obj 392 290 bng 15 250 50 0 /s/\$1/31 /r/\$1/31 empty 17 7 0 10 #fcfcfc #000000 #000000;
#X obj 382 221 delay 100 1 msec;
#X floatatom 473 156 5 0 0 0 - - - 0;
#X obj 855 693 delay 100 1 msec;
#X obj 849 758 bng 15 250 50 0 /s/\$1/35 /r/\$1/35 empty 17 7 0 10 #fcfcfc #000000 #000000;
#X floatatom 978 630 5 0 0 0 - - - 0;
#X obj 894 630 bng 15 250 50 0 /s/\$1/37 /r/\$1/37 empty 17 7 0 10 #fcfcfc #000000 #000000;
#X obj 149 822 r pd-seq.pd;
#X obj 727 758 dac~;
#X connect 0 0 8 0;
#X connect 1 0 7 0;
#X connect 2 0 6 0;
#X connect 3 0 1 0;
#X connect 3 0 5 1;
#X connect 4 0 1 1;
#X connect 5 0 6 0;
#X connect 6 0 11 0;
#X connect 7 0 9 0;
#X connect 8 0 4 0;
#X connect 9 0 10 0;
#X connect 9 0 16 0;
#X connect 10 0 9 1;
#X connect 11 0 9 0;
#X connect 12 0 13 0;
#X connect 13 0 27 0;
#X connect 14 0 32 0;
#X connect 17 0 24 0;
#X connect 18 0 27 0;
#X connect 19 0 20 0;
#X connect 20 0 18 0;
#X connect 21 0 15 0;
#X connect 21 0 15 1;
#X connect 22 0 30 0;
#X connect 23 0 22 0;
#X connect 24 0 23 0;
#X connect 25 0 19 0;
#X connect 26 0 25 0;
#X connect 27 0 21 0;
#X connect 28 0 14 0;
#X connect 28 0 31 0;
#X connect 29 0 28 0;
#X connect 30 0 27 0;
#X connect 31 0 12 0;
#X connect 32 0 31 0;
#X connect 33 0 32 1;
#X connect 34 0 35 0;
#X connect 35 0 23 0;
#X connect 36 0 34 1;
#X connect 37 0 34 0;
#X coords 0 0 1 1 85 60 0;
