#N canvas 705 447 1481 990 12;
#X obj 139 333 nbx 5 14 -1e+37 1e+37 0 0 empty empty empty 0 -8 0 10 #fcfcfc #000000 #000000 0 256;
#X obj 139 158 inlet;
#X obj 179 564 outlet;
#X obj 139 394 nbx 5 14 -1e+37 1e+37 0 0 empty empty empty 0 -8 0 10 #fcfcfc #000000 #000000 0 256;
#X obj 139 302 array get \$1;
#X obj 139 431 sel -1;
#X obj 340 767 array set \$1;
#X obj 372 400 - 1;
#X msg 340 672 0;
#X obj 367 466 mod 16;
#X connect 0 0 3 0;
#X connect 1 0 4 0;
#X connect 1 0 7 0;
#X connect 3 0 5 0;
#X connect 4 0 0 0;
#X connect 5 1 2 0;
#X connect 7 0 9 0;
#X connect 8 0 6 0;
#X connect 9 0 8 0;
#X connect 9 0 6 1;
#X coords 0 990 1 989 200 30 0;
