#N canvas 595 458 1864 990 12;
#X msg 713 407 0 0 2 2 4 4 5 7 7 9 9 11;
#X msg 926 406 0 0 3 3 5 5 7 7 8 8 10 10;
#X obj 477 264 % 12;
#X obj 477 64 inlet;
#X obj 477 348 array get \$0-scale;
#X obj 713 543 array define \$0-scale;
#X obj 459 491 outlet;
#X obj 398 309 div 12;
#X obj 398 349 * 12;
#X obj 459 440 +;
#X obj 926 321 loadbang;
#X obj 713 235 inlet;
#X obj 477 96 nbx 5 14 -1e+37 1e+37 0 0 empty empty empty 0 -8 0 10 #fcfcfc #000000 #000000 0 256;
#X obj 477 292 nbx 5 14 -1e+37 1e+37 0 0 empty empty empty 0 -8 0 10 #fcfcfc #000000 #000000 0 256;
#X obj 477 401 nbx 5 14 -1e+37 1e+37 0 0 empty empty empty 0 -8 0 10 #fcfcfc #000000 #000000 0 256;
#X obj 350 13 inlet;
#X obj 350 48 % 12;
#X obj 561 235 nbx 5 14 -1e+37 1e+37 0 0 empty empty empty 0 -8 0 10 #fcfcfc #000000 #000000 0 256;
#X obj 477 191 - 0;
#X obj 348 125 nbx 5 14 -1e+37 1e+37 0 0 empty empty empty 0 -8 0 10 #fcfcfc #000000 #000000 0 256;
#X msg 1127 404 -2 0 0 0 1 1 1 1 1 12 12 12;
#X obj 705 326 sel 0 1 2 3;
#X msg 1382 396 0 0 0 0 0 0 7 7 7 7 7 7;
#X connect 0 0 5 0;
#X connect 1 0 5 0;
#X connect 2 0 13 0;
#X connect 3 0 12 0;
#X connect 4 0 14 0;
#X connect 7 0 8 0;
#X connect 8 0 9 0;
#X connect 9 0 6 0;
#X connect 10 0 1 0;
#X connect 11 0 21 0;
#X connect 12 0 7 0;
#X connect 12 0 18 0;
#X connect 13 0 4 0;
#X connect 14 0 9 1;
#X connect 15 0 16 0;
#X connect 16 0 19 0;
#X connect 18 0 2 0;
#X connect 18 0 17 0;
#X connect 19 0 18 1;
#X connect 20 0 5 0;
#X connect 21 0 0 0;
#X connect 21 1 1 0;
#X connect 21 2 20 0;
#X connect 21 4 22 0;
#X connect 22 0 5 0;
