#N canvas 73 26 2486 1344 12;
#X obj 239 92 bng 15 250 50 0 empty empty empty 17 7 0 10 #fcfcfc #000000
#000000;
#X obj 561 1192 compressor;
#X obj 400 22 hsl 128 15 0 127 0 0 empty empty empty -2 -8 0 10 #fcfcfc
#000000 #000000 0 1;
#X obj 290 366 midibash;
#X obj 239 168 metro 200;
#X obj 290 927 hsl 128 15 0 10000 0 0 empty empty empty -2 -8 0 10
#fcfcfc #000000 #000000 0 1;
#X obj 518 824 adsr;
#X obj 1341 148 sampler;
#X obj 2085 452 dac~;
#X obj 1477 172 sampler;
#X obj 1621 262 s~ lr;
#X obj 2140 211 r~ l;
#X obj 2185 210 r~ r;
#X obj 2059 -10 r~ lr;
#X obj 1389 -44 hsl 128 15 0 127 0 0 empty empty empty -2 -8 0 10 #fcfcfc
#000000 #000000 0 1;
#X obj 2107 160 hsl 128 15 0 1 0 0 empty empty empty -2 -8 0 10 #fcfcfc
#000000 #000000 0 1;
#X msg 1568 114 kick.wav;
#X msg 1364 115 hat.wav;
#X obj 1758 147 sampler;
#X msg 1781 114 snare.wav;
#X obj 1183 -22 swing;
#X obj 1161 191 nbx 5 14 -1e+37 1e+37 0 0 empty empty empty 0 -8 0
10 #fcfcfc #000000 #000000 0 256;
#X obj 2085 212 *~;
#X obj 225 1113 *~;
#X obj 1739 -39 nbx 5 14 1 4 0 0 empty empty empty 0 -8 0 10 #fcfcfc
#000000 #000000 0 256;
#X obj 1591 312 bng 15 250 50 0 empty empty empty 17 7 0 10 #fcfcfc
#000000 #000000;
#X obj 1625 12 nbx 5 14 -1e+37 1e+37 0 0 empty empty empty 0 -8 0 10
#fcfcfc #000000 #000000 0 256;
#X obj 1625 -24 %;
#X obj 239 313 swing;
#X obj 274 284 hsl 128 15 0 127 0 0 empty empty empty -2 -8 0 10 #fcfcfc
#000000 #000000 0 1;
#X obj 2060 62 compressor;
#X obj 177 796 +;
#X obj 312 1065 nbx 5 14 0 256 0 0 empty empty empty 0 -8 0 10 #fcfcfc
#000000 #000000 0 256;
#X obj 264 1150 redux;
#X obj 82 940 phasor~;
#X obj 79 990 expr~ ($v1 * 2) - 1;
#X obj 161 1051 lop~;
#X obj 239 734 mtof;
#X obj 1514 619 moses;
#N canvas 0 50 450 250 (subpatch) 0;
#X array \$0-array1 16 float 3;
#A 0 -0.0999975 -0.0785703 0.371429 -0.042856 -0.0928555 -0.135712
0.35 -0.471421 -0.742846 -0.149995 0.428571 -0.135711 -0.285711 0.178571
0.214288 -0.407134;
#X coords 0 1 16 0 200 140 1 0 0;
#X restore 646 233 graph;
#X obj 1341 64 simpleseq \$0-array1;
#X obj 1260 97 clip 0 1;
#X obj 1259 128 sel 0;
#N canvas 0 50 450 250 (subpatch) 0;
#X array \$0-array2 16 float 3;
#A 0 0.0785714 -0.085712 -0.121426 -0.15714 0.078572 -0.135712 -0.342852
-0.328565 0.1 -0.00714189 -0.0785697 -0.20714 0.107143 -0.314281 -0.385709
-0.364281;
#X coords 0 1 16 0 200 140 1 0 0;
#X restore 846 233 graph;
#X obj 1545 63 simpleseq \$0-array2;
#X obj 1490 96 clip 0 1;
#X obj 1485 123 sel 0;
#N canvas 0 50 450 250 (subpatch) 0;
#X array \$0-array3 16 float 3;
#A 0 0.364286 -0.678527 -0.79995 -0.51425 -0.792809 -0.321409 -0.321409
-0.321409 0.157148 -0.114269 -0.321409 -0.292839 -0.399977 -0.357122
0.207143 -0.207128;
#X coords 0 1 16 0 200 140 1 0 0;
#X restore 1735 452 graph;
#X obj 1892 81 clip 0 1;
#X obj 1887 108 sel 0;
#X obj 1772 49 simpleseq \$0-array3;
#X obj 91 895 * 1;
#X obj 157 940 phasor~ 0.5;
#X obj 155 873 * 2.01;
#X connect 0 0 4 0;
#X connect 1 0 10 0;
#X connect 2 0 4 1;
#X connect 3 0 37 0;
#X connect 3 1 6 0;
#X connect 4 0 20 0;
#X connect 4 0 28 0;
#X connect 5 0 36 1;
#X connect 6 0 23 1;
#X connect 7 0 10 0;
#X connect 9 0 10 0;
#X connect 9 0 1 1;
#X connect 11 0 8 0;
#X connect 12 0 8 1;
#X connect 13 0 30 0;
#X connect 14 0 20 1;
#X connect 15 0 22 1;
#X connect 16 0 9 1;
#X connect 17 0 7 1;
#X connect 18 0 10 0;
#X connect 19 0 18 1;
#X connect 20 0 21 0;
#X connect 20 0 40 0;
#X connect 20 0 44 0;
#X connect 20 0 50 0;
#X connect 20 1 27 0;
#X connect 22 0 8 0;
#X connect 22 0 8 1;
#X connect 23 0 33 0;
#X connect 24 0 27 1;
#X connect 24 0 40 1;
#X connect 24 0 44 1;
#X connect 24 0 50 1;
#X connect 27 0 26 0;
#X connect 28 0 3 0;
#X connect 29 0 28 1;
#X connect 30 0 22 0;
#X connect 31 0 51 0;
#X connect 31 0 53 0;
#X connect 32 0 33 1;
#X connect 33 0 1 0;
#X connect 34 0 35 0;
#X connect 35 0 36 0;
#X connect 36 0 23 0;
#X connect 37 0 31 0;
#X connect 40 0 41 0;
#X connect 41 0 42 0;
#X connect 42 1 7 0;
#X connect 44 0 45 0;
#X connect 45 0 46 0;
#X connect 46 1 9 0;
#X connect 48 0 49 0;
#X connect 49 1 18 0;
#X connect 50 0 48 0;
#X connect 51 0 34 0;
#X connect 52 0 35 0;
#X connect 53 0 52 0;
