#N canvas 86 458 1864 990 12;
#X msg 926 406 0 0 3 3 5 5 7 7 8 8 10 10;
#X obj 477 264 % 12;
#X obj 477 64 inlet;
#X obj 477 348 array get \$0-scale;
#X obj 459 710 outlet;
#X obj 398 309 div 12;
#X obj 398 349 * 12;
#X obj 459 440 +;
#X obj 926 321 loadbang;
#X obj 713 235 inlet;
#X obj 477 96 nbx 5 14 -1e+37 1e+37 0 0 empty empty empty 0 -8 0 10 #fcfcfc #000000 #000000 0 256;
#X obj 477 292 nbx 5 14 -1e+37 1e+37 0 0 empty empty empty 0 -8 0 10 #fcfcfc #000000 #000000 0 256;
#X obj 477 401 nbx 5 14 -1e+37 1e+37 0 0 empty empty empty 0 -8 0 10 #fcfcfc #000000 #000000 0 256;
#X obj 578 56 inlet;
#X obj 578 91 % 12;
#X obj 578 125 nbx 5 14 -1e+37 1e+37 0 0 empty empty empty 0 -8 0 10 #fcfcfc #000000 #000000 0 256;
#X msg 1127 404 -2 0 0 0 1 1 1 1 1 12 12 12;
#X obj 703 273 sel 0 1 2 3;
#X obj 713 543 array set \$0-scale;
#N canvas 0 50 450 250 (subpatch) 0;
#X array \$0-scale 12 float 3;
#A 0 0 0 0 0 5 5 7 7 7 7 10 10;
#X coords 0 12 12 0 200 140 1 0 0;
#X restore 100 20 graph;
#X msg 713 407 0 0 2 2 4 4 5 7 7 9 9 11;
#X obj 459 613 nbx 5 18 -1e+37 1e+37 0 0 empty empty empty 0 -10 0 12 #fcfcfc #000000 #000000 0 256;
#X obj 459 547 +;
#X obj 477 191 -;
#X msg 1382 396 0 0 3 3 5 5 7 7 7 7 10 10;
#X connect 0 0 18 0;
#X connect 1 0 11 0;
#X connect 2 0 10 0;
#X connect 3 0 12 0;
#X connect 5 0 6 0;
#X connect 6 0 7 0;
#X connect 7 0 22 0;
#X connect 8 0 0 0;
#X connect 9 0 17 0;
#X connect 10 0 23 0;
#X connect 11 0 3 0;
#X connect 12 0 7 1;
#X connect 13 0 14 0;
#X connect 14 0 15 0;
#X connect 15 0 22 1;
#X connect 15 0 23 1;
#X connect 16 0 18 0;
#X connect 17 0 20 0;
#X connect 17 1 0 0;
#X connect 17 2 16 0;
#X connect 17 3 24 0;
#X connect 20 0 18 0;
#X connect 21 0 4 0;
#X connect 22 0 21 0;
#X connect 23 0 1 0;
#X connect 23 0 5 0;
#X connect 24 0 18 0;
