#N canvas 808 638 1436 741 10;
#X obj 144 46 inlet;
#X floatatom 144 100 5 0 0 0 - - - 0;
#X obj 144 376 outlet~;
#X obj 144 152 phasor~;
#X obj 310 43 inlet;
#X obj 143 250 expr~ if($v1 < $f2 \, 1 \, 0);
#X obj 244 44 inlet;
#X obj 143 314 expr~ ($v1 - 0.5) * 2;
#X connect 0 0 1 0;
#X connect 1 0 3 0;
#X connect 3 0 5 0;
#X connect 4 0 3 1;
#X connect 5 0 7 0;
#X connect 6 0 5 1;
#X connect 7 0 2 0;
