#N canvas 626 203 1354 1042 12;
#X obj 111 169 phasor~;
#X obj 168 186 *~ -1;
#X obj 149 44 inlet;
#X obj 152 202 +~;
#X obj 152 219 *~ 2;
#X floatatom 144 100 5 0 0 0 - - - 0;
#X obj 152 236 outlet~;
#X obj 175 169 phasor~ 0.5;
#X connect 0 0 3 0;
#X connect 1 0 3 1;
#X connect 2 0 5 0;
#X connect 3 0 4 0;
#X connect 4 0 6 0;
#X connect 5 0 0 0;
#X connect 5 0 7 0;
#X connect 7 0 1 0;
