#N canvas 521 735 1436 741 10;
#X obj 111 169 phasor~;
#X obj 169 216 *~ -1;
#X obj 149 44 inlet;
#X obj 156 253 +~;
#X obj 158 313 *~ 2;
#X floatatom 144 100 5 0 0 0 - - - 0;
#X obj 158 348 outlet~;
#X obj 283 71 bng 15 250 50 0 empty empty empty 17 7 0 10 #fcfcfc #000000 #000000;
#X obj 175 169 phasor~;
#X msg 249 119 0;
#X obj 283 34 loadbang;
#X msg 297 130 0.5;
#X connect 0 0 3 0;
#X connect 1 0 3 1;
#X connect 2 0 5 0;
#X connect 3 0 4 0;
#X connect 4 0 6 0;
#X connect 5 0 0 0;
#X connect 5 0 8 0;
#X connect 7 0 11 0;
#X connect 7 0 9 0;
#X connect 8 0 1 0;
#X connect 9 0 0 1;
#X connect 10 0 7 0;
#X connect 11 0 8 1;
