#N canvas 73 26 2486 1344 12;
#X obj 326 170 int;
#X obj 446 182 + 1;
#X obj 287 343 spigot;
#X obj 373 343 spigot;
#X obj 326 282 % 2;
#X obj 326 202 % 16;
#X obj 424 387 bng 15 250 50 0 empty empty empty 17 7 0 10 #fcfcfc
#000000 #000000;
#X obj 355 461 int;
#X obj 442 354 inlet;
#X obj 424 423 del;
#X obj 326 313 == 0;
#X obj 412 309 != 0;
#X obj 326 106 inlet;
#X obj 287 571 outlet;
#X obj 715 519 outlet;
#X obj 715 338 sel 0;
#X obj 715 388 int;
#X obj 783 425 + 1;
#X obj 715 455 % 4;
#X connect 0 0 1 0;
#X connect 0 0 5 0;
#X connect 1 0 0 1;
#X connect 2 0 13 0;
#X connect 3 0 6 0;
#X connect 3 0 7 1;
#X connect 4 0 10 0;
#X connect 4 0 11 0;
#X connect 5 0 4 0;
#X connect 5 0 2 0;
#X connect 5 0 3 0;
#X connect 5 0 15 0;
#X connect 6 0 9 0;
#X connect 7 0 13 0;
#X connect 8 0 9 1;
#X connect 9 0 7 0;
#X connect 10 0 2 1;
#X connect 11 0 3 1;
#X connect 12 0 0 0;
#X connect 15 0 16 0;
#X connect 16 0 17 0;
#X connect 16 0 18 0;
#X connect 17 0 16 1;
#X connect 18 0 14 0;
