#N canvas 626 203 1354 1042 12;
#X obj 62 308 spigot;
#X obj 62 340 outlet;
#X obj 62 29 inlet;
#X obj 62 192 sel;
#X obj 101 122 tgl 32 0 /s/\$1/4 /r/\$1/4 empty 17 7 0 10 #ff8300 #000000 #000000 0 1;
#X obj 110 103 bng 15 250 50 0 /s/\$1/5 /r/\$1/5 empty 17 7 0 10 #00ff04 #000000 #000000;
#X obj 80 65 inlet;
#X obj 104 161 nbx 5 8 -1e+37 1e+37 0 0 empty empty empty 0 -3 0 12 #fcfcfc #000000 #000000 0 256;
#X obj 104 146 r /r/\$1/7;
#X obj 104 176 s /s/\$1/7;
#X floatatom 360 147 5 0 0 0 - - - 0;
#X obj 206 203 nbx 5 8 -1e+37 1e+37 0 0 empty empty empty 0 -3 0 12 #fcfcfc #000000 #000000 0 256;
#X obj 206 188 r /r/\$1/11;
#X obj 206 218 s /s/\$1/11;
#X connect 0 0 1 0;
#X connect 2 0 3 0;
#X connect 3 0 5 0;
#X connect 4 0 0 1;
#X connect 5 0 7 0;
#X connect 6 0 3 1;
#X connect 7 0 9 0;
#X connect 7 0 0 0;
#X connect 8 0 7 0;
#X connect 11 0 13 0;
#X connect 12 0 11 0;
#X coords 0 -1 1 1 34 80 2 100 100;
