#N canvas 0 32 2560 1497 12;
#X obj 1294 693 sampler;
#X obj 1527 677 sampler;
#X obj 410 346 hsl 128 15 0 127 0 0 s-\$1-swing empty Swing -2 -8 0 10 #fcfcfc #000000 #000000 0 1;
#X obj 1773 672 sampler;
#X obj 1488 236 swing;
#X obj 1585 282 nbx 5 14 1 4 0 0 empty empty empty 0 -8 0 10 #fcfcfc #000000 #000000 0 256;
#X obj 1327 434 nbx 5 14 -1e+37 1e+37 0 0 empty empty empty 0 -8 0 10 #fcfcfc #000000 #000000 0 256;
#X obj 1520 316 %;
#N canvas 73 26 2486 1344 (subpatch) 0;
#X array a-\$1-kick 16 float 3;
#A 0 1 0 0 0 1 0 0 0 1 0 0 0 1 0 0 0;
#X coords 0 1 16 0 208 120 1 0 0;
#X restore 400 386 graph;
#X obj 1262 576 clip 0 1;
#X obj 1262 634 sel 0;
#N canvas 0 50 450 250 (subpatch) 0;
#X array a-\$1-snare 16 float 3;
#A 0 0 0 0 0 1 0 0 0 0 0 0 0 1 0 0 1;
#X coords 0 1 16 0 200 120 1 0 0;
#X restore 608 386 graph;
#X obj 1495 566 clip 0 1;
#X obj 1495 623 sel 0;
#N canvas 0 50 450 250 (subpatch) 0;
#X array a-\$1-hat 16 float 3;
#A 0 0 0 1 0 0 0 1 0 0 1 1 0 0 0 1 0;
#X coords 0 1 16 0 200 120 1 0 0;
#X restore 808 386 graph;
#X obj 1741 561 clip 0 1;
#X obj 1741 616 sel 0;
#X obj 1317 618 loadbang;
#X obj 1550 606 loadbang;
#X obj 1796 600 loadbang;
#X obj 1035 746 outlet~;
#X obj 1488 153 inlet;
#X obj 402 506 hradio 13 1 0 16 s-\$1-step empty empty 0 -8 0 10 #fcfcfc #000000 #000000 0;
#X msg 709 134 1 0 0 0 1 0 0 0 1 0 0 0 1 0 0 0;
#X obj 611 347 bng 15 250 50 0 s-\$1-preset1 r-\$1-preset1 HOUSE 17 7 0 10 #fcfcfc #000000 #000000;
#X msg 714 38 23;
#X msg 710 78 0 0 1 0 0 0 1 0 0 1 1 0 0 0 1 0;
#X msg 707 106 0 0 0 0 1 0 0 0 0 0 0 0 1 0 0 1;
#X obj 552 348 bng 15 250 50 0 s-\$1-preset0 r-\$1-preset0 GA\ GA 17 7 0 10 #fcfcfc #000000 #000000;
#X msg -222 270 0;
#X msg -223 324 0 0 0 0 1 0 0 0 0 0 0 0 1 0 0 0;
#X msg -224 351 1 0 0 0 1 0 0 0 1 0 0 0 1 0 0 0;
#X obj 1526 754 outlet~;
#X msg -224 299 0.7 0 1 0 0.7 0 1 0 0.7 0 1 0 0.7 1 1 1;
#X obj 1774 750 outlet~;
#X obj 1293 758 outlet~;
#X obj 1213 758 throw~ out;
#X obj 1446 753 throw~ out;
#X obj 1695 750 throw~ out;
#X obj 1034 708 catch~ out;
#X msg 1317 659 kick.wav;
#X msg 1550 643 snare.wav;
#X msg 1796 637 hat.wav;
#X obj 1350 758 outlet;
#X obj 1583 754 outlet;
#X obj 1830 751 outlet;
#X obj 678 348 bng 15 250 50 0 s-\$1-preset0 r-\$1-preset0 Clear 17 7 0 10 #fcfcfc #000000 #000000;
#X msg 458 -27 0 0 0 0 0 0 0 0 0 0 0 0 0 0 0 0;
#X msg 312 35 23;
#X obj 677 307 bng 15 250 50 0 s-RESET r-RESET RESET 17 7 0 10 #fcfcfc #000000 #000000;
#X obj 405 525 bng 19 250 50 0 s-\$1-kick r-\$1-kick empty 0 -10 0 12 #fcfcfc #000000 #000000;
#X msg 400 596 1;
#X obj 1034 531 nbx 5 17 -1e+37 1e+37 0 0 empty empty empty 0 -10 0 12 #fcfcfc #000000 #000000 0 256;
#X obj 617 527 bng 19 250 50 0 s-\$1-snare r-\$1-snare empty 0 -10 0 12 #fcfcfc #000000 #000000;
#X msg 617 601 1;
#X obj 819 520 bng 19 250 50 0 s-\$1-closed r-\$1-closed empty 0 -10 0 12 #fcfcfc #000000 #000000;
#X msg 819 594 1;
#X obj 1283 507 simpleseq a-\$1-kick;
#X obj 456 202 array set a-\$1-kick;
#X obj 383 650 array set a-\$1-kick;
#X obj 602 651 array set a-\$1-snare;
#X obj 1495 509 simpleseq a-\$1-snare;
#X obj 696 202 array set a-\$1-snare;
#X obj 1175 654 nbx 5 17 -1e+37 1e+37 0 0 empty empty empty 0 -10 0 12 #fcfcfc #000000 #000000 0 256;
#X obj 819 634 array set a-\$1-hat;
#X obj 1741 507 simpleseq a-\$1-hat;
#X obj 940 201 array set a-\$1-hat;
#X obj 119 51 nbx 5 17 -1e+37 1e+37 0 0 empty r-\$1-swing empty 0 -10 0 12 #fcfcfc #000000 #000000 0 256;
#X obj 1968 668 sampler;
#X obj 1936 557 clip 0 1;
#X obj 1936 612 sel 0;
#X obj 1991 596 loadbang;
#X obj 1972 860 outlet~;
#X obj 1874 861 throw~ out;
#X obj 2028 861 outlet;
#X msg 1991 633 funk_guitar.wav;
#X obj 1936 503 simpleseq a-\$1-seq-3;
#N canvas 0 50 450 250 (subpatch) 0;
#X array a-\$1-seq-3 16 float 3;
#A 0 -0.0666831 0 0 0 0 -0.133344 -0.108346 -0.383358 -0.36669 -0.150027 -0.225012 -0.066681 -0.250011 -0.241677 0.75 -0.583371;
#X coords 0 1 16 0 200 120 1 0 0;
#X restore 1009 386 graph;
#X obj 809 744 array set a-\$1-seq-3;
#X obj 2236 528 nbx 5 17 -1e+37 1e+37 0 0 empty empty empty 0 -10 0 12 #fcfcfc #000000 #000000 0 256;
#X msg 2019 191 1.06;
#X obj 2028 271 bng 19 250 50 0 s-\$1-closed r-\$1-closed empty 0 -10 0 12 #fcfcfc #000000 #000000;
#X msg 1973 321 1;
#X obj 1152 964;
#X obj 1912 925 bng 19 250 50 0 empty empty empty 0 -10 0 12 #fcfcfc #000000 #000000;
#X msg 1651 945 80;
#X connect 0 0 35 0;
#X connect 0 0 36 0;
#X connect 1 0 32 0;
#X connect 1 0 37 0;
#X connect 2 0 4 1;
#X connect 3 0 34 0;
#X connect 3 0 38 0;
#X connect 4 0 22 0;
#X connect 4 0 52 0;
#X connect 4 0 78 1;
#X connect 4 0 65 0;
#X connect 4 0 57 0;
#X connect 4 0 61 0;
#X connect 4 0 76 0;
#X connect 4 1 7 0;
#X connect 5 0 7 1;
#X connect 7 0 6 0;
#X connect 9 0 10 0;
#X connect 10 1 0 0;
#X connect 10 1 43 0;
#X connect 12 0 13 0;
#X connect 13 1 1 0;
#X connect 13 1 44 0;
#X connect 15 0 16 0;
#X connect 16 1 3 0;
#X connect 16 1 45 0;
#X connect 17 0 40 0;
#X connect 18 0 41 0;
#X connect 19 0 42 0;
#X connect 21 0 4 0;
#X connect 23 0 58 0;
#X connect 24 0 26 0;
#X connect 24 0 23 0;
#X connect 24 0 27 0;
#X connect 24 0 25 0;
#X connect 25 0 2 0;
#X connect 26 0 66 0;
#X connect 27 0 62 0;
#X connect 28 0 31 0;
#X connect 28 0 30 0;
#X connect 28 0 29 0;
#X connect 28 0 33 0;
#X connect 29 0 2 0;
#X connect 30 0 62 0;
#X connect 31 0 58 0;
#X connect 33 0 66 0;
#X connect 39 0 20 0;
#X connect 40 0 0 1;
#X connect 41 0 1 1;
#X connect 42 0 3 1;
#X connect 46 0 47 0;
#X connect 46 0 48 0;
#X connect 47 0 58 0;
#X connect 47 0 62 0;
#X connect 47 0 66 0;
#X connect 48 0 2 0;
#X connect 49 0 46 0;
#X connect 50 0 51 0;
#X connect 51 0 9 0;
#X connect 52 0 59 1;
#X connect 52 0 60 1;
#X connect 52 0 64 1;
#X connect 53 0 54 0;
#X connect 54 0 12 0;
#X connect 55 0 56 0;
#X connect 56 0 15 0;
#X connect 57 0 9 0;
#X connect 57 0 63 0;
#X connect 61 0 12 0;
#X connect 65 0 15 0;
#X connect 67 0 2 0;
#X connect 68 0 72 0;
#X connect 68 0 73 0;
#X connect 69 0 70 0;
#X connect 70 1 68 0;
#X connect 70 1 74 0;
#X connect 71 0 75 0;
#X connect 71 0 80 0;
#X connect 71 0 85 0;
#X connect 75 0 68 1;
#X connect 76 0 69 0;
#X connect 79 0 68 2;
#X connect 80 0 79 0;
#X connect 81 0 82 0;
#X connect 82 0 69 0;
#X coords 0 -1 1 1 810 250 1 400 300;
