#N canvas 444 321 1864 990 12;
#X obj 1294 693 sampler;
#X obj 1527 677 sampler;
#X obj 410 346 hsl 128 15 0 127 0 0 s-\$1-swing empty Swing -2 -8 0 10 #fcfcfc #000000 #000000 0 1;
#X obj 1773 672 sampler;
#X obj 1488 236 swing;
#X obj 1585 282 nbx 5 14 1 4 0 0 empty empty empty 0 -8 0 10 #fcfcfc #000000 #000000 0 256;
#X obj 1327 434 nbx 5 14 -1e+37 1e+37 0 0 empty empty empty 0 -8 0 10 #fcfcfc #000000 #000000 0 256;
#X obj 1520 316 %;
#N canvas 73 26 2486 1344 (subpatch) 0;
#X array \$1-array1 16 float 3;
#A 0 1 0 0 0 0 0 0 0 0 0 0 0 0 0 0 0;
#X coords 0 1 16 0 208 120 1 0 0;
#X restore 402 386 graph;
#X obj 1262 511 simpleseq \$1-array1;
#X obj 1262 576 clip 0 1;
#X obj 1262 634 sel 0;
#N canvas 0 50 450 250 (subpatch) 0;
#X array \$1-array2 16 float 3;
#A 0 1 0 0 0 0 0 0 0 0 0 0 0 0 0 0 0;
#X coords 0 1 16 0 200 120 1 0 0;
#X restore 610 386 graph;
#X obj 1495 509 simpleseq \$1-array2;
#X obj 1495 566 clip 0 1;
#X obj 1495 623 sel 0;
#N canvas 0 50 450 250 (subpatch) 0;
#X array \$1-array3 16 float 3;
#A 0 1 0 0 0 0 0 0 0 0 0 0 0 0 0 0 0;
#X coords 0 1 16 0 200 120 1 0 0;
#X restore 810 386 graph;
#X obj 1741 561 clip 0 1;
#X obj 1741 616 sel 0;
#X obj 1741 507 simpleseq \$1-array3;
#X obj 1317 618 loadbang;
#X obj 1550 606 loadbang;
#X obj 1796 600 loadbang;
#X obj 1035 746 outlet~;
#X obj 1488 153 inlet;
#X obj 402 506 hradio 13 1 0 16 s-\$1-step empty empty 0 -8 0 10 #fcfcfc #000000 #000000 0;
#X msg 709 134 1 0 0 0 1 0 0 0 1 0 0 0 1 0 0 0;
#X obj 696 202 array set \$1-array2;
#X obj 940 201 array set \$1-array3;
#X obj 611 347 bng 15 250 50 0 s-\$1-preset1 r-\$1-preset1 HOUSE 17 7 0 10 #fcfcfc #000000 #000000;
#X obj 456 202 array set \$1-array1;
#X msg 714 38 23;
#X msg 710 78 0 0 1 0 0 0 1 0 0 1 1 0 0 0 1 0;
#X msg 707 106 0 0 0 0 1 0 0 0 0 0 0 0 1 0 0 1;
#X obj 552 348 bng 15 250 50 0 s-\$1-preset0 r-\$1-preset0 GA\ GA 17 7 0 10 #fcfcfc #000000 #000000;
#X msg -222 270 0;
#X msg -223 324 0 0 0 0 1 0 0 0 0 0 0 0 1 0 0 0;
#X msg -224 351 1 0 0 0 1 0 0 0 1 0 0 0 1 0 0 0;
#X obj 1526 754 outlet~;
#X msg -224 299 0.7 0 1 0 0.7 0 1 0 0.7 0 1 0 0.7 1 1 1;
#X obj 1774 750 outlet~;
#X obj 1293 758 outlet~;
#X obj 1213 758 throw~ out;
#X obj 1446 753 throw~ out;
#X obj 1695 750 throw~ out;
#X obj 1034 708 catch~ out;
#X msg 1317 659 kick.wav;
#X msg 1550 643 snare.wav;
#X msg 1796 637 hat.wav;
#X obj 1350 758 outlet;
#X obj 1583 754 outlet;
#X obj 1830 751 outlet;
#X obj 678 348 bng 15 250 50 0 s-\$1-preset0 r-\$1-preset0 Clear 17 7 0 10 #fcfcfc #000000 #000000;
#X msg 458 -27 0 0 0 0 0 0 0 0 0 0 0 0 0 0 0 0;
#X msg 312 35 23;
#X obj 677 307 bng 15 250 50 0 s-RESET r-RESET RESET 17 7 0 10 #fcfcfc #000000 #000000;
#X obj 405 525 bng 19 250 50 0 s-\$1-kick r-\$1-kick empty 0 -10 0 12 #fcfcfc #000000 #000000;
#X obj 405 639 array set \$1-array1;
#X msg 405 599 1;
#X obj 1034 531 nbx 5 17 -1e+37 1e+37 0 0 empty empty empty 0 -10 0 12 #fcfcfc #000000 #000000 0 256;
#X obj 617 527 bng 19 250 50 0 s-\$1-snare r-\$1-snare empty 0 -10 0 12 #fcfcfc #000000 #000000;
#X msg 617 601 1;
#X obj 819 520 bng 19 250 50 0 s-\$1-closed r-\$1-closed empty 0 -10 0 12 #fcfcfc #000000 #000000;
#X msg 819 594 1;
#X obj 617 641 array set \$1-array2;
#X obj 819 634 array set \$1-array3;
#X connect 0 0 41 0;
#X connect 0 0 42 0;
#X connect 1 0 38 0;
#X connect 1 0 43 0;
#X connect 2 0 4 1;
#X connect 3 0 40 0;
#X connect 3 0 44 0;
#X connect 4 0 9 0;
#X connect 4 0 13 0;
#X connect 4 0 19 0;
#X connect 4 0 25 0;
#X connect 4 0 59 0;
#X connect 4 1 7 0;
#X connect 5 0 7 1;
#X connect 5 0 9 1;
#X connect 5 0 13 1;
#X connect 5 0 19 1;
#X connect 7 0 6 0;
#X connect 9 0 10 0;
#X connect 10 0 11 0;
#X connect 11 1 0 0;
#X connect 11 1 49 0;
#X connect 13 0 14 0;
#X connect 14 0 15 0;
#X connect 15 1 1 0;
#X connect 15 1 50 0;
#X connect 17 0 18 0;
#X connect 18 1 3 0;
#X connect 18 1 51 0;
#X connect 19 0 17 0;
#X connect 20 0 46 0;
#X connect 21 0 47 0;
#X connect 22 0 48 0;
#X connect 24 0 4 0;
#X connect 26 0 30 0;
#X connect 29 0 32 0;
#X connect 29 0 26 0;
#X connect 29 0 33 0;
#X connect 29 0 31 0;
#X connect 31 0 2 0;
#X connect 32 0 28 0;
#X connect 33 0 27 0;
#X connect 34 0 37 0;
#X connect 34 0 36 0;
#X connect 34 0 35 0;
#X connect 34 0 39 0;
#X connect 35 0 2 0;
#X connect 36 0 27 0;
#X connect 37 0 30 0;
#X connect 39 0 28 0;
#X connect 45 0 23 0;
#X connect 46 0 0 1;
#X connect 47 0 1 1;
#X connect 48 0 3 1;
#X connect 52 0 53 0;
#X connect 52 0 54 0;
#X connect 53 0 28 0;
#X connect 53 0 27 0;
#X connect 53 0 30 0;
#X connect 54 0 2 0;
#X connect 55 0 52 0;
#X connect 56 0 58 0;
#X connect 58 0 57 0;
#X connect 58 0 10 0;
#X connect 59 0 57 1;
#X connect 59 0 64 1;
#X connect 59 0 65 1;
#X connect 60 0 61 0;
#X connect 61 0 64 0;
#X connect 61 0 14 0;
#X connect 62 0 63 0;
#X connect 63 0 65 0;
#X connect 63 0 17 0;
#X coords 0 -1 1 1 608 250 1 400 300;
