#N canvas 73 26 2486 1344 12;
#X obj -965 49 tgl 16 0 s r empty 17 7 0 10 #fcfcfc #000000 #000000
0 1;
#X obj -965 13 bng 15 250 50 0 empty empty empty 17 7 0 10 #fcfcfc
#000000 #000000;
#X obj -1234 117 spigot;
#X obj -1215 -240 int 0;
#X obj -763 -199 % 16;
#X obj -1236 -41 sel 0;
#X obj -1163 117 spigot;
#X obj -930 13 bng 15 250 50 0 empty empty empty 17 7 0 10 #fcfcfc
#000000 #000000;
#X obj -930 49 tgl 16 0 s r empty 17 7 0 10 #fcfcfc #000000 #000000
0 1;
#X obj -1165 -41 sel 1;
#X obj -1092 117 spigot;
#X obj -895 13 bng 15 250 50 0 empty empty empty 17 7 0 10 #fcfcfc
#000000 #000000;
#X obj -1094 -41 sel 2;
#X obj -895 49 tgl 16 0 s r empty 17 7 0 10 #fcfcfc #000000 #000000
0 1;
#X obj -1144 -240 + 1;
#X obj -1021 117 spigot;
#X obj -860 49 tgl 16 0 s r empty 17 7 0 10 #fcfcfc #000000 #000000
0 1;
#X obj -860 13 bng 15 250 50 0 empty empty empty 17 7 0 10 #fcfcfc
#000000 #000000;
#X obj -1023 -41 sel 3;
#X obj -950 117 spigot;
#X obj -825 49 tgl 16 0 s r empty 17 7 0 10 #fcfcfc #000000 #000000
0 1;
#X obj -825 13 bng 15 250 50 0 empty empty empty 17 7 0 10 #fcfcfc
#000000 #000000;
#X obj -952 -41 sel 4;
#X obj -879 117 spigot;
#X obj -790 49 tgl 16 0 s r empty 17 7 0 10 #fcfcfc #000000 #000000
0 1;
#X obj -790 13 bng 15 250 50 0 empty empty empty 17 7 0 10 #fcfcfc
#000000 #000000;
#X obj -881 -41 sel 5;
#X obj -810 -41 sel 6;
#X obj -755 13 bng 15 250 50 0 empty empty empty 17 7 0 10 #fcfcfc
#000000 #000000;
#X obj -755 49 tgl 16 0 s r empty 17 7 0 10 #fcfcfc #000000 #000000
0 1;
#X obj -808 117 spigot;
#X obj -737 117 spigot;
#X obj -739 -41 sel 7;
#X obj -720 49 tgl 16 0 s r empty 17 7 0 10 #fcfcfc #000000 #000000
0 1;
#X obj -720 13 bng 15 250 50 0 empty empty empty 17 7 0 10 #fcfcfc
#000000 #000000;
#X obj -174 112 spigot;
#X obj -245 112 spigot;
#X obj -440 49 tgl 16 0 s r empty 17 7 0 10 #fcfcfc #000000 #000000
0 1;
#X obj -440 13 bng 15 250 50 0 empty empty empty 17 7 0 10 #fcfcfc
#000000 #000000;
#X obj -475 13 bng 15 250 50 0 empty empty empty 17 7 0 10 #fcfcfc
#000000 #000000;
#X obj -510 49 tgl 16 0 s r empty 17 7 0 10 #fcfcfc #000000 #000000
0 1;
#X obj -316 112 spigot;
#X obj -475 49 tgl 16 0 s r empty 17 7 0 10 #fcfcfc #000000 #000000
0 1;
#X obj -510 13 bng 15 250 50 0 empty empty empty 17 7 0 10 #fcfcfc
#000000 #000000;
#X obj -388 112 spigot;
#X obj -459 112 spigot;
#X obj -580 13 bng 15 250 50 0 empty empty empty 17 7 0 10 #fcfcfc
#000000 #000000;
#X obj -545 49 tgl 16 0 s r empty 17 7 0 10 #fcfcfc #000000 #000000
0 1;
#X obj -580 49 tgl 16 0 s r empty 17 7 0 10 #fcfcfc #000000 #000000
0 1;
#X obj -545 13 bng 15 250 50 0 empty empty empty 17 7 0 10 #fcfcfc
#000000 #000000;
#X obj -532 -46 sel 10;
#X obj -461 -46 sel 11;
#X obj -615 13 bng 15 250 50 0 empty empty empty 17 7 0 10 #fcfcfc
#000000 #000000;
#X obj -530 112 spigot;
#X obj -390 -46 sel 12;
#X obj -247 -46 sel 14;
#X obj -318 -46 sel 13;
#X obj -615 49 tgl 16 0 s r empty 17 7 0 10 #fcfcfc #000000 #000000
0 1;
#X obj -176 -46 sel 15;
#X obj -595 117 spigot;
#X obj -597 -41 sel 9;
#X obj -650 49 tgl 16 0 s r empty 17 7 0 10 #fcfcfc #000000 #000000
0 1;
#X obj -650 13 bng 15 250 50 0 empty empty empty 17 7 0 10 #fcfcfc
#000000 #000000;
#X obj -672 112 spigot;
#X obj -668 -41 sel 8;
#X obj -685 13 bng 15 250 50 0 empty empty empty 17 7 0 10 #fcfcfc
#000000 #000000;
#X obj -685 49 tgl 16 0 s r empty 17 7 0 10 #fcfcfc #000000 #000000
0 1;
#X obj -1484 -495 bng 15 250 50 0 empty empty empty 17 7 0 10 #fcfcfc
#000000 #000000;
#X obj -1307 1016 spigot;
#X obj -1347 658 sel 0;
#X obj -1518 497 int 0;
#X obj -1373 588 + 1;
#X obj -654 563 % 24;
#X msg -1389 -281 0;
#X obj -1140 -302 metro 0.25 120 permin;
#X obj -1510 365 metro 0.166667 120 permin;
#X obj -1024 773 tgl 16 0 s r empty 17 7 0 10 #fcfcfc #000000 #000000
0 1;
#X obj -1025 733 bng 15 250 50 0 empty empty empty 17 7 0 10 #fcfcfc
#000000 #000000;
#X obj -1275 658 sel 1;
#X obj -990 733 bng 15 250 50 0 empty empty empty 17 7 0 10 #fcfcfc
#000000 #000000;
#X obj -989 773 tgl 16 0 s r empty 17 7 0 10 #fcfcfc #000000 #000000
0 1;
#X obj -1236 1016 spigot;
#X obj -1094 1016 spigot;
#X obj -920 733 bng 15 250 50 0 empty empty empty 17 7 0 10 #fcfcfc
#000000 #000000;
#X obj -919 773 tgl 16 0 s r empty 17 7 0 10 #fcfcfc #000000 #000000
0 1;
#X obj -1165 1016 spigot;
#X obj -954 773 tgl 16 0 s r empty 17 7 0 10 #fcfcfc #000000 #000000
0 1;
#X obj -1204 658 sel 2;
#X obj -955 733 bng 15 250 50 0 empty empty empty 17 7 0 10 #fcfcfc
#000000 #000000;
#X obj -1133 658 sel 3;
#X obj -810 1016 spigot;
#X obj -881 1016 spigot;
#X obj -814 773 tgl 16 0 s r empty 17 7 0 10 #fcfcfc #000000 #000000
0 1;
#X obj -849 773 tgl 16 0 s r empty 17 7 0 10 #fcfcfc #000000 #000000
0 1;
#X obj -952 1016 spigot;
#X obj -779 773 tgl 16 0 s r empty 17 7 0 10 #fcfcfc #000000 #000000
0 1;
#X obj -884 773 tgl 16 0 s r empty 17 7 0 10 #fcfcfc #000000 #000000
0 1;
#X obj -885 733 bng 15 250 50 0 empty empty empty 17 7 0 10 #fcfcfc
#000000 #000000;
#X obj -1023 1016 spigot;
#X obj -850 733 bng 15 250 50 0 empty empty empty 17 7 0 10 #fcfcfc
#000000 #000000;
#X obj -780 733 bng 15 250 50 0 empty empty empty 17 7 0 10 #fcfcfc
#000000 #000000;
#X obj -815 733 bng 15 250 50 0 empty empty empty 17 7 0 10 #fcfcfc
#000000 #000000;
#X obj -1062 658 sel 4;
#X obj -991 658 sel 5;
#X obj -920 658 sel 6;
#X obj -849 658 sel 7;
#X obj -241 1016 spigot;
#X obj -312 1016 spigot;
#X obj -534 773 tgl 16 0 s r empty 17 7 0 10 #fcfcfc #000000 #000000
0 1;
#X obj -500 733 bng 15 250 50 0 empty empty empty 17 7 0 10 #fcfcfc
#000000 #000000;
#X obj -499 773 tgl 16 0 s r empty 17 7 0 10 #fcfcfc #000000 #000000
0 1;
#X obj -384 1016 spigot;
#X obj -569 773 tgl 16 0 s r empty 17 7 0 10 #fcfcfc #000000 #000000
0 1;
#X obj -535 733 bng 15 250 50 0 empty empty empty 17 7 0 10 #fcfcfc
#000000 #000000;
#X obj -570 733 bng 15 250 50 0 empty empty empty 17 7 0 10 #fcfcfc
#000000 #000000;
#X obj -604 773 tgl 16 0 s r empty 17 7 0 10 #fcfcfc #000000 #000000
0 1;
#X obj -605 733 bng 15 250 50 0 empty empty empty 17 7 0 10 #fcfcfc
#000000 #000000;
#X obj -455 1016 spigot;
#X obj -597 1016 spigot;
#X obj -526 1016 spigot;
#X obj -640 733 bng 15 250 50 0 empty empty empty 17 7 0 10 #fcfcfc
#000000 #000000;
#X obj -639 773 tgl 16 0 s r empty 17 7 0 10 #fcfcfc #000000 #000000
0 1;
#X obj -675 733 bng 15 250 50 0 empty empty empty 17 7 0 10 #fcfcfc
#000000 #000000;
#X obj -668 1016 spigot;
#X obj -674 773 tgl 16 0 s r empty 17 7 0 10 #fcfcfc #000000 #000000
0 1;
#X obj -352 658 sel 14;
#X obj -281 658 sel 15;
#X obj -707 658 sel 9;
#X obj -636 658 sel 10;
#X obj -710 733 bng 15 250 50 0 empty empty empty 17 7 0 10 #fcfcfc
#000000 #000000;
#X obj -423 658 sel 13;
#X obj -565 658 sel 11;
#X obj -709 773 tgl 16 0 s r empty 17 7 0 10 #fcfcfc #000000 #000000
0 1;
#X obj -494 658 sel 12;
#X obj -744 773 tgl 16 0 s r empty 17 7 0 10 #fcfcfc #000000 #000000
0 1;
#X obj -745 733 bng 15 250 50 0 empty empty empty 17 7 0 10 #fcfcfc
#000000 #000000;
#X obj -739 1016 spigot;
#X obj -778 658 sel 8;
#X obj 255 1016 spigot;
#X obj 184 1016 spigot;
#X obj 326 1016 spigot;
#X obj 42 1016 spigot;
#X obj 113 1016 spigot;
#X obj -28 1016 spigot;
#X obj -99 1016 spigot;
#X obj -359 773 tgl 16 0 s r empty 17 7 0 10 #fcfcfc #000000 #000000
0 1;
#X obj -430 733 bng 15 250 50 0 empty empty empty 17 7 0 10 #fcfcfc
#000000 #000000;
#X obj -360 733 bng 15 250 50 0 empty empty empty 17 7 0 10 #fcfcfc
#000000 #000000;
#X obj -170 1016 spigot;
#X obj -219 773 tgl 16 0 s r empty 17 7 0 10 #fcfcfc #000000 #000000
0 1;
#X obj -324 773 tgl 16 0 s r empty 17 7 0 10 #fcfcfc #000000 #000000
0 1;
#X obj -394 773 tgl 16 0 s r empty 17 7 0 10 #fcfcfc #000000 #000000
0 1;
#X obj -325 733 bng 15 250 50 0 empty empty empty 17 7 0 10 #fcfcfc
#000000 #000000;
#X obj -290 733 bng 15 250 50 0 empty empty empty 17 7 0 10 #fcfcfc
#000000 #000000;
#X obj -220 733 bng 15 250 50 0 empty empty empty 17 7 0 10 #fcfcfc
#000000 #000000;
#X obj -255 733 bng 15 250 50 0 empty empty empty 17 7 0 10 #fcfcfc
#000000 #000000;
#X obj -395 733 bng 15 250 50 0 empty empty empty 17 7 0 10 #fcfcfc
#000000 #000000;
#X obj -254 773 tgl 16 0 s r empty 17 7 0 10 #fcfcfc #000000 #000000
0 1;
#X obj -289 773 tgl 16 0 s r empty 17 7 0 10 #fcfcfc #000000 #000000
0 1;
#X obj -465 733 bng 15 250 50 0 empty empty empty 17 7 0 10 #fcfcfc
#000000 #000000;
#X obj -464 773 tgl 16 0 s r empty 17 7 0 10 #fcfcfc #000000 #000000
0 1;
#X obj -429 773 tgl 16 0 s r empty 17 7 0 10 #fcfcfc #000000 #000000
0 1;
#X obj -67 658 sel 18;
#X obj 216 658 sel 22;
#X obj 3 658 sel 19;
#X obj 287 658 sel 23;
#X obj 74 658 sel 20;
#X obj -210 658 sel 16;
#X obj 145 658 sel 21;
#X obj -138 658 sel 17;
#X obj -971 355 sampler NAMESPACE/170;
#X obj -231 494 dac~;
#X msg -939 188 set list kick.wav;
#X obj -236 427 *~ 0.1;
#X obj -1087 1273 sampler NAMESPACE/174;
#X msg -1053 1109 set list hat.wav;
#X obj -867 1244 nbx 5 14 -1e+37 1e+37 0 0 empty empty empty 0 -8 0
10 #fcfcfc #000000 #000000 0 256;
#X obj -731 361 nbx 5 14 -1e+37 1e+37 0 0 empty empty empty 0 -8 0
10 #fcfcfc #000000 #000000 0 256;
#X obj 759 -595 metro 0.25 120 permin;
#X obj 755 -533 + 1;
#X obj 684 -533 int 0;
#X obj 734 -334 sel 1;
#X obj 805 -334 sel 2;
#X obj 947 -334 sel 4;
#X obj 876 -334 sel 3;
#X obj 1018 -334 sel 5;
#X obj 653 -329 sel 0;
#X obj 1079 -329 sel 6;
#X obj 1069 -275 bng 15 250 50 0 empty empty empty 17 7 0 10 #fcfcfc
#000000 #000000;
#X obj 1104 -275 bng 15 250 50 0 empty empty empty 17 7 0 10 #fcfcfc
#000000 #000000;
#X obj 994 -275 bng 15 250 50 0 empty empty empty 17 7 0 10 #fcfcfc
#000000 #000000;
#X obj 1029 -275 bng 15 250 50 0 empty empty empty 17 7 0 10 #fcfcfc
#000000 #000000;
#X obj 929 -275 bng 15 250 50 0 empty empty empty 17 7 0 10 #fcfcfc
#000000 #000000;
#X obj 964 -275 bng 15 250 50 0 empty empty empty 17 7 0 10 #fcfcfc
#000000 #000000;
#X obj 1126 -487 % 16;
#X obj 1139 -275 bng 15 250 50 0 empty empty empty 17 7 0 10 #fcfcfc
#000000 #000000;
#X obj 1139 -239 tgl 16 0 s r empty 17 7 0 10 #fcfcfc #000000 #000000
0 1;
#X obj 1069 -239 tgl 16 0 s r empty 17 7 0 10 #fcfcfc #000000 #000000
0 1;
#X obj 1104 -239 tgl 16 0 s r empty 17 7 0 10 #fcfcfc #000000 #000000
0 1;
#X obj 1150 -329 sel 7;
#X obj 1029 -239 tgl 16 0 s r empty 17 7 0 10 #fcfcfc #000000 #000000
0 1;
#X obj 999 -239 tgl 16 0 s r empty 17 7 0 10 #fcfcfc #000000 #000000
0 1;
#X obj 964 -239 tgl 16 0 s r empty 17 7 0 10 #fcfcfc #000000 #000000
0 1;
#X obj 929 -239 tgl 16 0 s r empty 17 7 0 10 #fcfcfc #000000 #000000
0 1;
#X obj 1174 -275 bng 15 250 50 0 empty empty empty 17 7 0 10 #fcfcfc
#000000 #000000;
#X obj 1174 -239 tgl 16 0 s r empty 17 7 0 10 #fcfcfc #000000 #000000
0 1;
#X obj 1209 -239 tgl 16 0 s r empty 17 7 0 10 #fcfcfc #000000 #000000
0 1;
#X obj 1086 -171 spigot;
#X obj 1157 -171 spigot;
#X obj 1209 -275 bng 15 250 50 0 empty empty empty 17 7 0 10 #fcfcfc
#000000 #000000;
#X obj 802 -171 spigot;
#X obj 873 -171 spigot;
#X obj 1015 -171 spigot;
#X obj 944 -171 spigot;
#X obj 660 -171 spigot;
#X obj 731 -171 spigot;
#X obj 1244 -275 bng 15 250 50 0 empty empty empty 17 7 0 10 #fcfcfc
#000000 #000000;
#X obj 1239 -239 tgl 16 0 s r empty 17 7 0 10 #fcfcfc #000000 #000000
0 1;
#X obj 1226 -329 sel 8;
#X obj 1222 -176 spigot;
#X obj 1279 -275 bng 15 250 50 0 empty empty empty 17 7 0 10 #fcfcfc
#000000 #000000;
#X obj 1277 -237 tgl 16 0 s r empty 17 7 0 10 #fcfcfc #000000 #000000
0 1;
#X obj 1347 -273 bng 15 250 50 0 empty empty empty 17 7 0 10 #fcfcfc
#000000 #000000;
#X obj 1312 -273 bng 15 250 50 0 empty empty empty 17 7 0 10 #fcfcfc
#000000 #000000;
#X obj 1297 -169 spigot;
#X obj 1295 -327 sel 9;
#X obj 1347 -237 tgl 16 0 s r empty 17 7 0 10 #fcfcfc #000000 #000000
0 1;
#X obj 1312 -237 tgl 16 0 s r empty 17 7 0 10 #fcfcfc #000000 #000000
0 1;
#X obj 1362 -174 spigot;
#X obj 1382 -237 tgl 16 0 s r empty 17 7 0 10 #fcfcfc #000000 #000000
0 1;
#X obj 1382 -273 bng 15 250 50 0 empty empty empty 17 7 0 10 #fcfcfc
#000000 #000000;
#X obj 1360 -332 sel 10;
#X obj 1417 -237 tgl 16 0 s r empty 17 7 0 10 #fcfcfc #000000 #000000
0 1;
#X obj 1433 -174 spigot;
#X obj 1417 -273 bng 15 250 50 0 empty empty empty 17 7 0 10 #fcfcfc
#000000 #000000;
#X obj 1431 -332 sel 11;
#X obj 1452 -237 tgl 16 0 s r empty 17 7 0 10 #fcfcfc #000000 #000000
0 1;
#X obj 1452 -273 bng 15 250 50 0 empty empty empty 17 7 0 10 #fcfcfc
#000000 #000000;
#X obj 1502 -332 sel 12;
#X obj 1504 -174 spigot;
#X obj 921 68 sampler NAMESPACE/413;
#X obj 1576 -174 spigot;
#X obj 1574 -332 sel 13;
#X obj 2032 -77 spigot;
#X obj 1645 -332 sel 14;
#X obj 2101 -235 sel 15;
#X obj 2103 -77 spigot;
#X msg 1745 232 set list hat.wav;
#X connect 0 0 2 1;
#X connect 1 0 2 0;
#X connect 2 0 170 0;
#X connect 3 0 14 0;
#X connect 3 0 4 0;
#X connect 4 0 5 0;
#X connect 4 0 9 0;
#X connect 4 0 12 0;
#X connect 4 0 18 0;
#X connect 4 0 22 0;
#X connect 4 0 26 0;
#X connect 4 0 27 0;
#X connect 4 0 32 0;
#X connect 4 0 64 0;
#X connect 4 0 60 0;
#X connect 4 0 50 0;
#X connect 4 0 51 0;
#X connect 4 0 54 0;
#X connect 4 0 56 0;
#X connect 4 0 55 0;
#X connect 4 0 58 0;
#X connect 5 0 1 0;
#X connect 6 0 170 0;
#X connect 7 0 6 0;
#X connect 8 0 6 1;
#X connect 9 0 7 0;
#X connect 10 0 170 0;
#X connect 11 0 10 0;
#X connect 12 0 11 0;
#X connect 13 0 10 1;
#X connect 14 0 3 1;
#X connect 15 0 170 0;
#X connect 16 0 15 1;
#X connect 17 0 15 0;
#X connect 18 0 17 0;
#X connect 19 0 170 0;
#X connect 20 0 19 1;
#X connect 21 0 19 0;
#X connect 22 0 21 0;
#X connect 23 0 170 0;
#X connect 24 0 23 1;
#X connect 25 0 23 0;
#X connect 26 0 25 0;
#X connect 27 0 28 0;
#X connect 28 0 30 0;
#X connect 29 0 30 1;
#X connect 30 0 170 0;
#X connect 31 0 170 0;
#X connect 32 0 34 0;
#X connect 33 0 31 1;
#X connect 34 0 31 0;
#X connect 35 0 170 0;
#X connect 36 0 170 0;
#X connect 37 0 35 1;
#X connect 38 0 35 0;
#X connect 39 0 36 0;
#X connect 40 0 41 1;
#X connect 41 0 170 0;
#X connect 42 0 36 1;
#X connect 43 0 41 0;
#X connect 44 0 170 0;
#X connect 45 0 170 0;
#X connect 46 0 45 0;
#X connect 47 0 44 1;
#X connect 48 0 45 1;
#X connect 49 0 44 0;
#X connect 50 0 52 0;
#X connect 51 0 46 0;
#X connect 52 0 53 0;
#X connect 53 0 170 0;
#X connect 54 0 49 0;
#X connect 55 0 39 0;
#X connect 56 0 43 0;
#X connect 57 0 53 1;
#X connect 58 0 38 0;
#X connect 59 0 170 0;
#X connect 60 0 62 0;
#X connect 61 0 59 1;
#X connect 62 0 59 0;
#X connect 63 0 170 0;
#X connect 64 0 65 0;
#X connect 65 0 63 0;
#X connect 66 0 63 1;
#X connect 67 0 73 0;
#X connect 67 0 74 0;
#X connect 67 0 75 0;
#X connect 67 0 178 0;
#X connect 68 0 174 0;
#X connect 69 0 77 0;
#X connect 70 0 71 0;
#X connect 70 0 72 0;
#X connect 71 0 70 1;
#X connect 72 0 69 0;
#X connect 72 0 78 0;
#X connect 72 0 87 0;
#X connect 72 0 89 0;
#X connect 72 0 102 0;
#X connect 72 0 103 0;
#X connect 72 0 104 0;
#X connect 72 0 105 0;
#X connect 72 0 137 0;
#X connect 72 0 127 0;
#X connect 72 0 128 0;
#X connect 72 0 131 0;
#X connect 72 0 133 0;
#X connect 72 0 130 0;
#X connect 72 0 125 0;
#X connect 72 0 126 0;
#X connect 72 0 167 0;
#X connect 72 0 169 0;
#X connect 72 0 162 0;
#X connect 72 0 164 0;
#X connect 72 0 166 0;
#X connect 72 0 168 0;
#X connect 72 0 163 0;
#X connect 72 0 165 0;
#X connect 73 0 3 0;
#X connect 73 0 70 0;
#X connect 73 0 180 0;
#X connect 74 0 3 0;
#X connect 75 0 70 0;
#X connect 76 0 68 1;
#X connect 77 0 68 0;
#X connect 78 0 79 0;
#X connect 79 0 81 0;
#X connect 80 0 81 1;
#X connect 81 0 174 0;
#X connect 82 0 174 0;
#X connect 83 0 82 0;
#X connect 84 0 82 1;
#X connect 85 0 174 0;
#X connect 86 0 85 1;
#X connect 87 0 88 0;
#X connect 88 0 85 0;
#X connect 89 0 83 0;
#X connect 90 0 174 0;
#X connect 91 0 174 0;
#X connect 92 0 91 1;
#X connect 93 0 94 1;
#X connect 94 0 174 0;
#X connect 95 0 90 1;
#X connect 96 0 98 1;
#X connect 97 0 98 0;
#X connect 98 0 174 0;
#X connect 99 0 94 0;
#X connect 100 0 90 0;
#X connect 101 0 91 0;
#X connect 102 0 97 0;
#X connect 103 0 99 0;
#X connect 104 0 101 0;
#X connect 105 0 100 0;
#X connect 106 0 174 0;
#X connect 107 0 174 0;
#X connect 108 0 107 1;
#X connect 109 0 106 0;
#X connect 110 0 106 1;
#X connect 111 0 174 0;
#X connect 112 0 111 1;
#X connect 113 0 107 0;
#X connect 114 0 111 0;
#X connect 115 0 117 1;
#X connect 116 0 117 0;
#X connect 117 0 174 0;
#X connect 118 0 174 0;
#X connect 119 0 174 0;
#X connect 120 0 119 0;
#X connect 121 0 119 1;
#X connect 122 0 118 0;
#X connect 123 0 174 0;
#X connect 124 0 118 1;
#X connect 125 0 113 0;
#X connect 126 0 109 0;
#X connect 127 0 129 0;
#X connect 128 0 122 0;
#X connect 129 0 123 0;
#X connect 130 0 114 0;
#X connect 131 0 120 0;
#X connect 132 0 123 1;
#X connect 133 0 116 0;
#X connect 134 0 136 1;
#X connect 135 0 136 0;
#X connect 136 0 174 0;
#X connect 137 0 135 0;
#X connect 138 0 174 0;
#X connect 139 0 174 0;
#X connect 140 0 174 0;
#X connect 141 0 174 0;
#X connect 142 0 174 0;
#X connect 143 0 174 0;
#X connect 144 0 174 0;
#X connect 145 0 141 1;
#X connect 146 0 144 0;
#X connect 147 0 141 0;
#X connect 148 0 174 0;
#X connect 149 0 140 1;
#X connect 150 0 142 1;
#X connect 151 0 143 1;
#X connect 152 0 142 0;
#X connect 153 0 139 0;
#X connect 154 0 140 0;
#X connect 155 0 138 0;
#X connect 156 0 143 0;
#X connect 157 0 138 1;
#X connect 158 0 139 1;
#X connect 159 0 148 0;
#X connect 160 0 148 1;
#X connect 161 0 144 1;
#X connect 162 0 156 0;
#X connect 163 0 155 0;
#X connect 164 0 147 0;
#X connect 165 0 154 0;
#X connect 166 0 152 0;
#X connect 167 0 159 0;
#X connect 168 0 153 0;
#X connect 169 0 146 0;
#X connect 170 0 173 0;
#X connect 172 0 170 1;
#X connect 173 0 171 0;
#X connect 174 0 173 0;
#X connect 175 0 174 1;
#X connect 176 0 174 2;
#X connect 177 0 170 2;
#X connect 178 0 180 0;
#X connect 179 0 180 1;
#X connect 180 0 179 0;
#X connect 180 0 194 0;
#X connect 181 0 193 0;
#X connect 182 0 190 0;
#X connect 183 0 188 0;
#X connect 184 0 191 0;
#X connect 185 0 189 0;
#X connect 186 0 192 0;
#X connect 187 0 195 0;
#X connect 188 0 213 0;
#X connect 189 0 212 0;
#X connect 190 0 210 0;
#X connect 191 0 211 0;
#X connect 192 0 214 0;
#X connect 193 0 215 0;
#X connect 194 0 182 0;
#X connect 194 0 184 0;
#X connect 194 0 181 0;
#X connect 194 0 186 0;
#X connect 194 0 183 0;
#X connect 194 0 185 0;
#X connect 194 0 187 0;
#X connect 194 0 225 0;
#X connect 194 0 231 0;
#X connect 194 0 199 0;
#X connect 194 0 235 0;
#X connect 194 0 238 0;
#X connect 194 0 242 0;
#X connect 194 0 218 0;
#X connect 194 0 244 0;
#X connect 194 0 245 0;
#X connect 195 0 207 0;
#X connect 196 0 207 1;
#X connect 197 0 213 1;
#X connect 198 0 212 1;
#X connect 199 0 204 0;
#X connect 200 0 211 1;
#X connect 201 0 210 1;
#X connect 202 0 215 1;
#X connect 203 0 214 1;
#X connect 204 0 208 0;
#X connect 205 0 208 1;
#X connect 206 0 219 1;
#X connect 207 0 240 0;
#X connect 208 0 240 0;
#X connect 209 0 219 0;
#X connect 210 0 240 0;
#X connect 211 0 240 0;
#X connect 212 0 240 0;
#X connect 213 0 240 0;
#X connect 214 0 240 0;
#X connect 215 0 240 0;
#X connect 216 0 224 0;
#X connect 217 0 224 1;
#X connect 218 0 209 0;
#X connect 219 0 240 0;
#X connect 220 0 228 0;
#X connect 221 0 228 1;
#X connect 222 0 239 0;
#X connect 223 0 233 0;
#X connect 224 0 240 0;
#X connect 225 0 216 0;
#X connect 226 0 239 1;
#X connect 227 0 233 1;
#X connect 228 0 240 0;
#X connect 229 0 241 1;
#X connect 230 0 241 0;
#X connect 231 0 220 0;
#X connect 232 0 243 1;
#X connect 233 0 240 0;
#X connect 234 0 243 0;
#X connect 235 0 223 0;
#X connect 236 0 246 1;
#X connect 237 0 246 0;
#X connect 238 0 222 0;
#X connect 239 0 240 0;
#X connect 240 0 171 0;
#X connect 241 0 240 0;
#X connect 242 0 230 0;
#X connect 243 0 240 0;
#X connect 244 0 234 0;
#X connect 245 0 237 0;
#X connect 246 0 240 0;
#X connect 247 0 240 1;
#X coords 0 -1 1 1 1382 88 2 -417 -955;
