#N canvas 757 493 971 650 12;
#X obj -370 -390 tgl 8 0 {s} {r} empty 17 7 0 10 #fcfcfc #000000 #000000 0 1;
#X obj -370 -426 bng 15 250 50 0 empty empty empty 17 7 0 10 #fcfcfc #000000 #000000;
#X obj -369 -322 spigot;
#X obj -596 -413 int 0;
#X obj -598 -258 % 8;
#X obj -371 -483 sel 0;
#X obj -271 -322 spigot;
#X obj -272 -426 bng 15 250 50 0 empty empty empty 17 7 0 10 #fcfcfc #000000 #000000;
#X obj -272 -390 tgl 8 0 {s} {r} empty 17 7 0 10 #fcfcfc #000000 #000000 0 1;
#X obj -273 -483 sel 1;
#X obj -184 -320 spigot;
#X obj -185 -424 bng 15 250 50 0 empty empty empty 17 7 0 10 #fcfcfc #000000 #000000;
#X obj -186 -481 sel 2;
#X obj -185 -388 tgl 8 0 {s} {r} empty 17 7 0 10 #fcfcfc #000000 #000000 0 1;
#X obj -599 -180 nbx 5 8 -1e+37 1e+37 0 0 empty empty empty 0 -3 0 12 #fcfcfc #000000 #000000 0 256;
#X obj -515 -412 + 1;
#X obj -90 -320 spigot;
#X obj -91 -388 tgl 8 0 {s} {r} empty 17 7 0 10 #fcfcfc #000000 #000000 0 1;
#X obj -91 -424 bng 15 250 50 0 empty empty empty 17 7 0 10 #fcfcfc #000000 #000000;
#X obj -92 -481 sel 3;
#X obj 0 -321 spigot;
#X obj 0 -389 tgl 8 0 {s} {r} empty 17 7 0 10 #fcfcfc #000000 #000000 0 1;
#X obj 0 -425 bng 15 250 50 0 empty empty empty 17 7 0 10 #fcfcfc #000000 #000000;
#X obj -1 -482 sel 4;
#X obj 92 -321 spigot;
#X obj 92 -389 tgl 8 0 {s} {r} empty 17 7 0 10 #fcfcfc #000000 #000000 0 1;
#X obj 92 -425 bng 15 250 50 0 empty empty empty 17 7 0 10 #fcfcfc #000000 #000000;
#X obj 91 -482 sel 5;
#X obj 177 -483 sel 6;
#X obj 178 -426 bng 15 250 50 0 empty empty empty 17 7 0 10 #fcfcfc #000000 #000000;
#X obj 178 -390 tgl 8 0 {s} {r} empty 17 7 0 10 #fcfcfc #000000 #000000 0 1;
#X obj 178 -322 spigot;
#X obj 262 -320 spigot;
#X obj 261 -481 sel 7;
#X obj 262 -388 tgl 8 0 {s} {r} empty 17 7 0 10 #fcfcfc #000000 #000000 0 1;
#X obj 262 -424 bng 15 250 50 0 empty empty empty 17 7 0 10 #fcfcfc #000000 #000000;
#X obj -65 -140 outlet;
#X obj -592 -604 inlet;
#X obj -370 -420 r /r/\$1/0;
#X obj -370 -360 s /s/\$1/0;
#X obj -370 -456 r /r/\$1/1;
#X obj -370 -396 s /s/\$1/1;
#X obj -272 -456 r /r/\$1/7;
#X obj -272 -396 s /s/\$1/7;
#X obj -272 -420 r /r/\$1/8;
#X obj -272 -360 s /s/\$1/8;
#X obj -185 -454 r /r/\$1/11;
#X obj -185 -394 s /s/\$1/11;
#X obj -185 -418 r /r/\$1/13;
#X obj -185 -358 s /s/\$1/13;
#X obj -599 -210 r /r/\$1/14;
#X obj -599 -150 s /s/\$1/14;
#X obj -91 -418 r /r/\$1/17;
#X obj -91 -358 s /s/\$1/17;
#X obj -91 -454 r /r/\$1/18;
#X obj -91 -394 s /s/\$1/18;
#X obj 0 -419 r /r/\$1/21;
#X obj 0 -359 s /s/\$1/21;
#X obj 0 -455 r /r/\$1/22;
#X obj 0 -395 s /s/\$1/22;
#X obj 92 -419 r /r/\$1/25;
#X obj 92 -359 s /s/\$1/25;
#X obj 92 -455 r /r/\$1/26;
#X obj 92 -395 s /s/\$1/26;
#X obj 178 -456 r /r/\$1/29;
#X obj 178 -396 s /s/\$1/29;
#X obj 178 -420 r /r/\$1/30;
#X obj 178 -360 s /s/\$1/30;
#X obj 262 -418 r /r/\$1/34;
#X obj 262 -358 s /s/\$1/34;
#X obj 262 -454 r /r/\$1/35;
#X obj 262 -394 s /s/\$1/35;
#X connect 0 0 2 1;
#X connect 0 0 39 0;
#X connect 1 0 2 0;
#X connect 1 0 41 0;
#X connect 2 0 36 0;
#X connect 3 0 4 0;
#X connect 3 0 15 0;
#X connect 4 0 5 0;
#X connect 4 0 9 0;
#X connect 4 0 12 0;
#X connect 4 0 14 0;
#X connect 4 0 19 0;
#X connect 4 0 23 0;
#X connect 4 0 27 0;
#X connect 4 0 28 0;
#X connect 4 0 33 0;
#X connect 5 0 1 0;
#X connect 6 0 36 0;
#X connect 7 0 6 0;
#X connect 7 0 43 0;
#X connect 8 0 6 1;
#X connect 8 0 45 0;
#X connect 9 0 7 0;
#X connect 10 0 36 0;
#X connect 11 0 10 0;
#X connect 11 0 47 0;
#X connect 12 0 11 0;
#X connect 13 0 10 1;
#X connect 13 0 49 0;
#X connect 14 0 51 0;
#X connect 15 0 3 1;
#X connect 16 0 36 0;
#X connect 17 0 16 1;
#X connect 17 0 53 0;
#X connect 18 0 16 0;
#X connect 18 0 55 0;
#X connect 19 0 18 0;
#X connect 20 0 36 0;
#X connect 21 0 20 1;
#X connect 21 0 57 0;
#X connect 22 0 20 0;
#X connect 22 0 59 0;
#X connect 23 0 22 0;
#X connect 24 0 36 0;
#X connect 25 0 24 1;
#X connect 25 0 61 0;
#X connect 26 0 24 0;
#X connect 26 0 63 0;
#X connect 27 0 26 0;
#X connect 28 0 29 0;
#X connect 29 0 31 0;
#X connect 29 0 65 0;
#X connect 30 0 31 1;
#X connect 30 0 67 0;
#X connect 31 0 36 0;
#X connect 32 0 36 0;
#X connect 33 0 35 0;
#X connect 34 0 32 1;
#X connect 34 0 69 0;
#X connect 35 0 32 0;
#X connect 35 0 71 0;
#X connect 37 0 3 0;
#X connect 38 0 0 0;
#X connect 40 0 1 0;
#X connect 42 0 7 0;
#X connect 44 0 8 0;
#X connect 46 0 11 0;
#X connect 48 0 13 0;
#X connect 50 0 14 0;
#X connect 52 0 17 0;
#X connect 54 0 18 0;
#X connect 56 0 21 0;
#X connect 58 0 22 0;
#X connect 60 0 25 0;
#X connect 62 0 26 0;
#X connect 64 0 29 0;
#X connect 66 0 30 0;
#X connect 68 0 34 0;
#X connect 70 0 35 0;
#X coords 0 -1 1 1 728 260 2 -385 -511;
