#N canvas 302 197 1864 990 12;
#X obj 473 1114 dac~;
#X obj 364 643 lital hat;
#X obj 285 268 midibash;
#X obj 298 209 swing;
#X obj 485 981 r~ lrx;
#X obj 969 276 toykit toykit;
#X obj 298 157 metro 130;
#X obj 126 745 acid acid;
#X obj 774 928 compressor;
#X obj 390 875 *~ 0.9;
#X obj 648 366 nbx 5 14 -1e+37 1e+37 0 0 empty empty empty 0 -8 0 10
#fcfcfc #000000 #000000 0 256;
#X obj 648 429 == 0;
#X obj 680 512 bng 15 250 50 0 s-clock r-clock empty 17 7 0 10 #fcfcfc
#000000 #000000;
#X obj 648 459 sel 0;
#X obj 1420 710 noise~;
#X obj 1416 800 *~;
#X obj 1500 742 vline~;
#X msg 1560 659 0.5 0 \, 0 5000;
#X obj 1570 579 bng 15 250 50 0 s-noise r-noise empty 17 7 0 10 #fcfcfc
#000000 #000000;
#X obj 1169 517 bng 15 250 50 0 s-rumble r-rumble Rumble 17 7 0 10
#fcfcfc #000000 #000000;
#X obj 746 430 bng 15 250 50 0 s-clock-beat r-clock-beat empty 17 7
0 10 #fcfcfc #000000 #000000;
#X msg 208 53 stop;
#X obj 120 58 bng 15 250 50 0 s-PLAY r-PLAY play 17 7 0 10 #fcfcfc
#000000 #000000;
#X obj 208 25 bng 15 250 50 0 s-STOP r-STOP stop 17 7 0 10 #fcfcfc
#000000 #000000;
#X obj 802 443 bng 15 250 50 0 s-clock-beat r-clock-beat empty 17 7
0 10 #fcfcfc #000000 #000000;
#X obj 566 535 bng 15 250 50 0 s-clock-4 r-clock-4 empty 17 7 0 10
#fcfcfc #000000 #000000;
#X obj 577 460 sel 0;
#X obj 577 430 % 4;
#X connect 2 0 1 0;
#X connect 2 0 7 0;
#X connect 2 1 1 1;
#X connect 3 0 2 0;
#X connect 3 0 10 0;
#X connect 4 0 0 0;
#X connect 4 0 0 1;
#X connect 5 0 0 1;
#X connect 5 0 0 0;
#X connect 5 1 8 1;
#X connect 5 2 19 0;
#X connect 6 0 3 0;
#X connect 6 0 5 0;
#X connect 7 0 9 0;
#X connect 8 0 0 0;
#X connect 8 0 0 1;
#X connect 9 0 8 0;
#X connect 10 0 11 0;
#X connect 10 0 20 0;
#X connect 10 0 27 0;
#X connect 11 0 13 0;
#X connect 13 1 12 0;
#X connect 14 0 15 0;
#X connect 15 0 0 1;
#X connect 15 0 0 0;
#X connect 16 0 15 1;
#X connect 17 0 16 0;
#X connect 18 0 17 0;
#X connect 21 0 6 0;
#X connect 22 0 6 0;
#X connect 23 0 21 0;
#X connect 26 0 25 0;
#X connect 27 0 26 0;
