#N canvas 73 26 2486 1344 12;
#X obj 473 1114 dac~;
#X obj 364 643 lital hat;
#X obj 299 96 loadbang;
#X obj 447 119 bng 15 250 50 0 empty empty empty 17 7 0 10 #fcfcfc
#000000 #000000;
#X obj 285 268 midibash;
#X obj 298 209 swing;
#X obj 485 981 r~ lrx;
#X obj 969 276 toykit toykit;
#X obj 298 157 metro 130;
#X obj 126 745 acid acid;
#X obj 774 928 compressor;
#X obj 390 875 *~ 0.9;
#X connect 2 0 8 0;
#X connect 3 0 8 0;
#X connect 4 0 1 0;
#X connect 4 0 9 0;
#X connect 4 1 1 1;
#X connect 5 0 4 0;
#X connect 6 0 0 0;
#X connect 6 0 0 1;
#X connect 7 0 0 1;
#X connect 7 0 0 0;
#X connect 7 1 10 1;
#X connect 8 0 5 0;
#X connect 8 0 7 0;
#X connect 9 0 11 0;
#X connect 10 0 0 0;
#X connect 10 0 0 1;
#X connect 11 0 10 0;
